<svg xmlns="http://www.w3.org/2000/svg" xmlns:xlink="http://www.w3.org/1999/xlink" contentStyleType="text/css" height="1312px" preserveAspectRatio="none" style="width:1064px;height:1312px;background:#FFFFFF;" version="1.1" viewBox="0 0 1064 1312" width="1064px" zoomAndPan="magnify"><defs/><g><rect fill="#F1F1F1" height="36.2969" rx="12.5" ry="12.5" style="stroke:#181818;stroke-width:1.5;" width="60.373" x="10" y="636.9922"/><text fill="#000000" font-family="sans-serif" font-size="14" lengthAdjust="spacing" textLength="40.373" x="20" y="659.9873">Axum</text><rect fill="#F1F1F1" height="36.2969" rx="12.5" ry="12.5" style="stroke:#181818;stroke-width:1.5;" width="261.9512" x="120.373" y="188.8906"/><text fill="#000000" font-family="sans-serif" font-size="14" lengthAdjust="spacing" textLength="147.8135" x="130.373" y="211.8857">Router: Map paths to</text><text fill="#000000" font-family="sans-serif" font-size="14" font-weight="bold" lengthAdjust="spacing" textLength="89.6875" x="282.6367" y="211.8857">IntoService</text><rect fill="#F1F1F1" height="36.2969" rx="12.5" ry="12.5" style="stroke:#181818;stroke-width:1.5;" width="121.8008" x="432.3242" y="48.1484"/><text fill="#000000" font-family="sans-serif" font-size="14" lengthAdjust="spacing" textLength="101.8008" x="442.3242" y="71.1436">(path, service)</text><rect fill="#F1F1F1" height="36.2969" rx="12.5" ry="12.5" style="stroke:#181818;stroke-width:1.5;" width="249.127" x="604.125" y="20"/><text fill="#000000" font-family="sans-serif" font-size="14" lengthAdjust="spacing" textLength="229.127" x="614.125" y="42.9951">convert handler to Axum service</text><path d="M554.125,66.2969 L564.125,66.2969 C579.125,66.2969 579.125,38.1484 594.125,38.1484 L604.125,38.1484 " fill="none" style="stroke:#181818;stroke-width:1.0;"/><rect fill="#F1F1F1" height="36.2969" rx="12.5" ry="12.5" style="stroke:#181818;stroke-width:1.5;" width="254.7598" x="604.125" y="76.2969"/><text fill="#000000" font-family="sans-serif" font-size="14" lengthAdjust="spacing" textLength="234.7598" x="614.125" y="99.292">use existing axum/tower services</text><path d="M554.125,66.2969 L564.125,66.2969 C579.125,66.2969 579.125,94.4453 594.125,94.4453 L604.125,94.4453 " fill="none" style="stroke:#181818;stroke-width:1.0;"/><path d="M382.3242,207.0391 L392.3242,207.0391 C407.3242,207.0391 407.3242,66.2969 422.3242,66.2969 L432.3242,66.2969 " fill="none" style="stroke:#181818;stroke-width:1.0;"/><rect fill="#F1F1F1" height="36.2969" rx="12.5" ry="12.5" style="stroke:#181818;stroke-width:1.5;" width="65.5068" x="432.3242" y="160.7422"/><text fill="#000000" font-family="sans-serif" font-size="14" lengthAdjust="spacing" textLength="45.5068" x="442.3242" y="183.7373">merge</text><rect fill="#F1F1F1" height="36.2969" rx="12.5" ry="12.5" style="stroke:#181818;stroke-width:1.5;" width="232.6455" x="547.8311" y="132.5938"/><text fill="#000000" font-family="sans-serif" font-size="14" lengthAdjust="spacing" textLength="212.6455" x="557.8311" y="155.5889">non-overlapping path services</text><path d="M497.8311,178.8906 L507.8311,178.8906 C522.8311,178.8906 522.8311,150.7422 537.8311,150.7422 L547.8311,150.7422 " fill="none" style="stroke:#181818;stroke-width:1.0;"/><rect fill="#F1F1F1" height="36.2969" rx="12.5" ry="12.5" style="stroke:#181818;stroke-width:1.5;" width="131.7061" x="547.8311" y="188.8906"/><text fill="#000000" font-family="sans-serif" font-size="14" lengthAdjust="spacing" textLength="111.7061" x="557.8311" y="211.8857">fallback_service</text><path d="M497.8311,178.8906 L507.8311,178.8906 C522.8311,178.8906 522.8311,207.0391 537.8311,207.0391 L547.8311,207.0391 " fill="none" style="stroke:#181818;stroke-width:1.0;"/><path d="M382.3242,207.0391 L392.3242,207.0391 C407.3242,207.0391 407.3242,178.8906 422.3242,178.8906 L432.3242,178.8906 " fill="none" style="stroke:#181818;stroke-width:1.0;"/><rect fill="#F1F1F1" height="36.2969" rx="12.5" ry="12.5" style="stroke:#181818;stroke-width:1.5;" width="121.7666" x="432.3242" y="245.1875"/><text fill="#000000" font-family="sans-serif" font-size="14" lengthAdjust="spacing" textLength="101.7666" x="442.3242" y="268.1826">tower services</text><text fill="#000000" font-family="sans-serif" font-size="14" lengthAdjust="spacing" textLength="60.5801" x="607.0908" y="268.1826">ServeDir</text><path d="M554.0908,263.3359 L564.0908,263.3359 C579.0908,263.3359 579.0908,263.3359 594.0908,263.3359 L604.0908,263.3359 " fill="none" style="stroke:#181818;stroke-width:1.0;"/><path d="M382.3242,207.0391 L392.3242,207.0391 C407.3242,207.0391 407.3242,263.3359 422.3242,263.3359 L432.3242,263.3359 " fill="none" style="stroke:#181818;stroke-width:1.0;"/><rect fill="#F1F1F1" height="36.2969" rx="12.5" ry="12.5" style="stroke:#181818;stroke-width:1.5;" width="80.7646" x="432.3242" y="329.6328"/><text fill="#000000" font-family="sans-serif" font-size="14" lengthAdjust="spacing" textLength="60.7646" x="442.3242" y="352.6279">handlers</text><rect fill="#F1F1F1" height="36.2969" rx="12.5" ry="12.5" style="stroke:#181818;stroke-width:1.5;" width="151.5645" x="563.0889" y="301.4844"/><text fill="#000000" font-family="sans-serif" font-size="14" font-style="italic" lengthAdjust="spacing" textLength="131.5645" x="573.0889" y="324.4795">axum::routing::get</text><path d="M513.0889,347.7813 L523.0889,347.7813 C538.0889,347.7813 538.0889,319.6328 553.0889,319.6328 L563.0889,319.6328 " fill="none" style="stroke:#181818;stroke-width:1.0;"/><rect fill="#F1F1F1" height="36.2969" rx="12.5" ry="12.5" style="stroke:#181818;stroke-width:1.5;" width="158.8105" x="563.0889" y="357.7813"/><text fill="#000000" font-family="sans-serif" font-size="14" font-style="italic" lengthAdjust="spacing" textLength="138.8105" x="573.0889" y="380.7764">axum::routing::post</text><path d="M513.0889,347.7813 L523.0889,347.7813 C538.0889,347.7813 538.0889,375.9297 553.0889,375.9297 L563.0889,375.9297 " fill="none" style="stroke:#181818;stroke-width:1.0;"/><path d="M382.3242,207.0391 L392.3242,207.0391 C407.3242,207.0391 407.3242,347.7813 422.3242,347.7813 L432.3242,347.7813 " fill="none" style="stroke:#181818;stroke-width:1.0;"/><path d="M70.373,655.1406 L80.373,655.1406 C95.373,655.1406 95.373,207.0391 110.373,207.0391 L120.373,207.0391 " fill="none" style="stroke:#181818;stroke-width:1.0;"/><rect fill="#F1F1F1" height="36.2969" rx="12.5" ry="12.5" style="stroke:#181818;stroke-width:1.5;" width="91.7568" x="120.373" y="458.5234"/><text fill="#000000" font-family="sans-serif" font-size="14" lengthAdjust="spacing" textLength="71.7568" x="130.373" y="481.5186">Extractors</text><text fill="#000000" font-family="sans-serif" font-size="14" lengthAdjust="spacing" textLength="493.917" x="265.1299" y="444.2217">https://github.com/tokio-rs/axum/blob/main/axum/src/docs/extract.md</text><path d="M212.1299,476.6719 L222.1299,476.6719 C237.1299,476.6719 237.1299,439.375 252.1299,439.375 L262.1299,439.375 " fill="none" style="stroke:#181818;stroke-width:1.0;"/><rect fill="#F1F1F1" height="36.2969" rx="12.5" ry="12.5" style="stroke:#181818;stroke-width:1.5;" width="564.749" x="262.1299" y="458.5234"/><text fill="#000000" font-family="sans-serif" font-size="14" lengthAdjust="spacing" textLength="71.7568" x="272.1299" y="481.5186">Extractors</text><text fill="#000000" font-family="sans-serif" font-size="14" font-style="italic" lengthAdjust="spacing" textLength="93.5088" x="348.3369" y="481.5186">FromRequest</text><text fill="#000000" font-family="sans-serif" font-size="14" lengthAdjust="spacing" textLength="4.4502" x="441.8457" y="481.5186">,</text><text fill="#000000" font-family="sans-serif" font-size="14" font-style="italic" lengthAdjust="spacing" textLength="121.7754" x="450.7461" y="481.5186">FromRequestPart</text><text fill="#000000" font-family="sans-serif" font-size="14" lengthAdjust="spacing" textLength="239.9072" x="576.9717" y="481.5186">to extract a type from the request</text><rect fill="#F1F1F1" height="52.5938" rx="12.5" ry="12.5" style="stroke:#181818;stroke-width:1.5;" width="175.1484" x="876.8789" y="414.0781"/><text fill="#000000" font-family="sans-serif" font-size="14" lengthAdjust="spacing" textLength="4.4502" x="886.8789" y="437.0732">&#160;</text><text fill="#000000" font-family="sans-serif" font-size="14" font-style="italic" lengthAdjust="spacing" textLength="150.6982" x="891.3291" y="437.0732">axum::extract::Query</text><text fill="#000000" font-family="sans-serif" font-size="14" font-style="italic" lengthAdjust="spacing" textLength="130.1016" x="891.3291" y="453.3701">/hello?name=Mike</text><path d="M826.8789,476.6719 L836.8789,476.6719 C851.8789,476.6719 851.8789,440.375 866.8789,440.375 L876.8789,440.375 " fill="none" style="stroke:#181818;stroke-width:1.0;"/><rect fill="#F1F1F1" height="52.5938" rx="12.5" ry="12.5" style="stroke:#181818;stroke-width:1.5;" width="163.9854" x="876.8789" y="486.6719"/><text fill="#000000" font-family="sans-serif" font-size="14" lengthAdjust="spacing" textLength="4.4502" x="886.8789" y="509.667">&#160;</text><text fill="#000000" font-family="sans-serif" font-size="14" font-style="italic" lengthAdjust="spacing" textLength="139.5352" x="891.3291" y="509.667">axum::extract::Path</text><text fill="#000000" font-family="sans-serif" font-size="14" font-style="italic" lengthAdjust="spacing" textLength="84.8613" x="891.3291" y="525.9639">/hello2/Mike</text><path d="M826.8789,476.6719 L836.8789,476.6719 C851.8789,476.6719 851.8789,512.9688 866.8789,512.9688 L876.8789,512.9688 " fill="none" style="stroke:#181818;stroke-width:1.0;"/><path d="M212.1299,476.6719 L222.1299,476.6719 C237.1299,476.6719 237.1299,476.6719 252.1299,476.6719 L262.1299,476.6719 " fill="none" style="stroke:#181818;stroke-width:1.0;"/><path d="M70.373,655.1406 L80.373,655.1406 C95.373,655.1406 95.373,476.6719 110.373,476.6719 L120.373,476.6719 " fill="none" style="stroke:#181818;stroke-width:1.0;"/><rect fill="#F1F1F1" height="36.2969" rx="12.5" ry="12.5" style="stroke:#181818;stroke-width:1.5;" width="134.2354" x="120.373" y="603.7109"/><text fill="#000000" font-family="sans-serif" font-size="14" lengthAdjust="spacing" textLength="114.2354" x="130.373" y="626.7061">Request Params</text><rect fill="#F1F1F1" height="52.5938" rx="12.5" ry="12.5" style="stroke:#181818;stroke-width:1.5;" width="204.4814" x="304.6084" y="559.2656"/><text fill="#000000" font-family="sans-serif" font-size="14" lengthAdjust="spacing" textLength="4.4502" x="314.6084" y="582.2607">&#160;</text><text fill="#000000" font-family="sans-serif" font-size="14" font-weight="bold" lengthAdjust="spacing" textLength="93.8643" x="319.0586" y="582.2607">:component</text><text fill="#000000" font-family="sans-serif" font-size="14" lengthAdjust="spacing" textLength="81.7168" x="417.373" y="582.2607">path param</text><text fill="#000000" font-family="sans-serif" font-size="14" font-weight="bold" lengthAdjust="spacing" textLength="158.3545" x="314.6084" y="598.5576">axum::extract::Path</text><path d="M254.6084,621.8594 L264.6084,621.8594 C279.6084,621.8594 279.6084,585.5625 294.6084,585.5625 L304.6084,585.5625 " fill="none" style="stroke:#181818;stroke-width:1.0;"/><rect fill="#F1F1F1" height="52.5938" rx="12.5" ry="12.5" style="stroke:#181818;stroke-width:1.5;" width="213.2178" x="304.6084" y="631.8594"/><text fill="#000000" font-family="sans-serif" font-size="14" lengthAdjust="spacing" textLength="4.4502" x="314.6084" y="654.8545">&#160;</text><text fill="#000000" font-family="sans-serif" font-size="14" font-weight="bold" lengthAdjust="spacing" textLength="86.7207" x="319.0586" y="654.8545">?name=val</text><text fill="#000000" font-family="sans-serif" font-size="14" lengthAdjust="spacing" textLength="97.5967" x="410.2295" y="654.8545">query params</text><text fill="#000000" font-family="sans-serif" font-size="14" font-weight="bold" lengthAdjust="spacing" textLength="169.3809" x="314.6084" y="671.1514">axum::extract::Query</text><path d="M254.6084,621.8594 L264.6084,621.8594 C279.6084,621.8594 279.6084,658.1563 294.6084,658.1563 L304.6084,658.1563 " fill="none" style="stroke:#181818;stroke-width:1.0;"/><path d="M70.373,655.1406 L80.373,655.1406 C95.373,655.1406 95.373,621.8594 110.373,621.8594 L120.373,621.8594 " fill="none" style="stroke:#181818;stroke-width:1.0;"/><rect fill="#F1F1F1" height="36.2969" rx="12.5" ry="12.5" style="stroke:#181818;stroke-width:1.5;" width="87.8672" x="120.373" y="732.6016"/><text fill="#000000" font-family="sans-serif" font-size="14" lengthAdjust="spacing" textLength="67.8672" x="130.373" y="755.5967">Response</text><rect fill="#F1F1F1" height="36.2969" rx="12.5" ry="12.5" style="stroke:#181818;stroke-width:1.5;" width="213.6758" x="258.2402" y="704.4531"/><text fill="#000000" font-family="sans-serif" font-size="14" lengthAdjust="spacing" textLength="33.5439" x="268.2402" y="727.4482">Html</text><text fill="#000000" font-family="sans-serif" font-size="14" font-style="italic" lengthAdjust="spacing" textLength="155.6816" x="306.2344" y="727.4482">axum::response::Html</text><path d="M208.2402,750.75 L218.2402,750.75 C233.2402,750.75 233.2402,722.6016 248.2402,722.6016 L258.2402,722.6016 " fill="none" style="stroke:#181818;stroke-width:1.0;"/><rect fill="#F1F1F1" height="36.2969" rx="12.5" ry="12.5" style="stroke:#181818;stroke-width:1.5;" width="48.8613" x="258.2402" y="760.75"/><text fill="#000000" font-family="sans-serif" font-size="14" lengthAdjust="spacing" textLength="28.8613" x="268.2402" y="783.7451">Json</text><path d="M208.2402,750.75 L218.2402,750.75 C233.2402,750.75 233.2402,778.8984 248.2402,778.8984 L258.2402,778.8984 " fill="none" style="stroke:#181818;stroke-width:1.0;"/><path d="M70.373,655.1406 L80.373,655.1406 C95.373,655.1406 95.373,750.75 110.373,750.75 L120.373,750.75 " fill="none" style="stroke:#181818;stroke-width:1.0;"/><rect fill="#F1F1F1" height="36.2969" rx="12.5" ry="12.5" style="stroke:#181818;stroke-width:1.5;" width="75.2275" x="120.373" y="817.0469"/><text fill="#000000" font-family="sans-serif" font-size="14" lengthAdjust="spacing" textLength="55.2275" x="130.373" y="840.042">Payload</text><rect fill="#F1F1F1" height="36.2969" rx="12.5" ry="12.5" style="stroke:#181818;stroke-width:1.5;" width="162.2832" x="245.6006" y="817.0469"/><text fill="#000000" font-family="sans-serif" font-size="14" lengthAdjust="spacing" textLength="142.2832" x="255.6006" y="840.042">Body Extractor: Json</text><path d="M195.6006,835.1953 L205.6006,835.1953 C220.6006,835.1953 220.6006,835.1953 235.6006,835.1953 L245.6006,835.1953 " fill="none" style="stroke:#181818;stroke-width:1.0;"/><path d="M70.373,655.1406 L80.373,655.1406 C95.373,655.1406 95.373,835.1953 110.373,835.1953 L120.373,835.1953 " fill="none" style="stroke:#181818;stroke-width:1.0;"/><rect fill="#F1F1F1" height="36.2969" rx="12.5" ry="12.5" style="stroke:#181818;stroke-width:1.5;" width="100.6436" x="120.373" y="891.6406"/><text fill="#000000" font-family="sans-serif" font-size="14" lengthAdjust="spacing" textLength="80.6436" x="130.373" y="914.6357">Middleware</text><text fill="#000000" font-family="sans-serif" font-size="14" lengthAdjust="spacing" textLength="130.3271" x="274.0166" y="877.3389">Mostly from Tower</text><path d="M221.0166,909.7891 L231.0166,909.7891 C246.0166,909.7891 246.0166,872.4922 261.0166,872.4922 L271.0166,872.4922 " fill="none" style="stroke:#181818;stroke-width:1.0;"/><text fill="#000000" font-family="sans-serif" font-size="14" lengthAdjust="spacing" textLength="101.999" x="274.0166" y="895.6357">map_response</text><path d="M221.0166,909.7891 L231.0166,909.7891 C246.0166,909.7891 246.0166,890.7891 261.0166,890.7891 L271.0166,890.7891 " fill="none" style="stroke:#181818;stroke-width:1.0;"/><rect fill="#FFA500" height="36.2969" rx="12.5" ry="12.5" style="stroke:#181818;stroke-width:1.5;" width="74.8105" x="271.0166" y="909.9375"/><text fill="#000000" font-family="sans-serif" font-size="14" lengthAdjust="spacing" textLength="54.8105" x="281.0166" y="932.9326">Cookies</text><text fill="#000000" font-family="sans-serif" font-size="14" lengthAdjust="spacing" textLength="20.7539" x="398.8271" y="914.6357">via</text><text fill="#000000" font-family="sans-serif" font-size="14" font-weight="bold" lengthAdjust="spacing" textLength="280.499" x="424.0313" y="914.6357">.layer(CookieManagerLayer::new())</text><path d="M345.8271,928.0859 L355.8271,928.0859 C370.8271,928.0859 370.8271,909.7891 385.8271,909.7891 L395.8271,909.7891 " fill="none" style="stroke:#181818;stroke-width:1.0;"/><text fill="#000000" font-family="sans-serif" font-size="14" lengthAdjust="spacing" textLength="26.3525" x="398.8271" y="932.9326">add</text><text fill="#000000" font-family="sans-serif" font-size="14" font-weight="bold" lengthAdjust="spacing" textLength="136.9922" x="429.6299" y="932.9326">cookies:: Cookies</text><text fill="#000000" font-family="sans-serif" font-size="14" lengthAdjust="spacing" textLength="93.8574" x="571.0723" y="932.9326">as first arg to</text><text fill="#000000" font-family="sans-serif" font-size="14" font-weight="bold" lengthAdjust="spacing" textLength="19.0449" x="669.3799" y="932.9326">all</text><text fill="#000000" font-family="sans-serif" font-size="14" lengthAdjust="spacing" textLength="60.7646" x="692.875" y="932.9326">handlers</text><path d="M345.8271,928.0859 L355.8271,928.0859 C370.8271,928.0859 370.8271,928.0859 385.8271,928.0859 L395.8271,928.0859 " fill="none" style="stroke:#181818;stroke-width:1.0;"/><text fill="#000000" font-family="sans-serif" font-size="14" lengthAdjust="spacing" textLength="46.6006" x="398.8271" y="951.2295">set via</text><text fill="#000000" font-family="sans-serif" font-size="14" font-weight="bold" lengthAdjust="spacing" textLength="240.4268" x="449.8779" y="951.2295">cookies.add( Cookies::new(..))</text><path d="M345.8271,928.0859 L355.8271,928.0859 C370.8271,928.0859 370.8271,946.3828 385.8271,946.3828 L395.8271,946.3828 " fill="none" style="stroke:#181818;stroke-width:1.0;"/><path d="M221.0166,909.7891 L231.0166,909.7891 C246.0166,909.7891 246.0166,928.0859 261.0166,928.0859 L271.0166,928.0859 " fill="none" style="stroke:#181818;stroke-width:1.0;"/><path d="M70.373,655.1406 L80.373,655.1406 C95.373,655.1406 95.373,909.7891 110.373,909.7891 L120.373,909.7891 " fill="none" style="stroke:#181818;stroke-width:1.0;"/><rect fill="#F1F1F1" height="36.2969" rx="12.5" ry="12.5" style="stroke:#181818;stroke-width:1.5;" width="75.0908" x="120.373" y="947.9375"/><text fill="#000000" font-family="sans-serif" font-size="14" lengthAdjust="spacing" textLength="55.0908" x="130.373" y="970.9326">Context</text><text fill="#000000" font-family="sans-serif" font-size="14" lengthAdjust="spacing" textLength="48.9385" x="248.4639" y="970.9326">State ?</text><path d="M195.4639,966.0859 L205.4639,966.0859 C220.4639,966.0859 220.4639,966.0859 235.4639,966.0859 L245.4639,966.0859 " fill="none" style="stroke:#181818;stroke-width:1.0;"/><path d="M70.373,655.1406 L80.373,655.1406 C95.373,655.1406 95.373,966.0859 110.373,966.0859 L120.373,966.0859 " fill="none" style="stroke:#181818;stroke-width:1.0;"/><rect fill="#F1F1F1" height="36.2969" rx="12.5" ry="12.5" style="stroke:#181818;stroke-width:1.5;" width="80.7646" x="120.373" y="1058.5703"/><text fill="#000000" font-family="sans-serif" font-size="14" lengthAdjust="spacing" textLength="60.7646" x="130.373" y="1081.5654">handlers</text><rect fill="#FFFF00" height="182.9688" rx="12.5" ry="12.5" style="stroke:#181818;stroke-width:1.5;" width="373.3701" x="251.1377" y="985.2344"/><text fill="#000000" font-family="sans-serif" font-size="14" lengthAdjust="spacing" textLength="327.4756" x="261.1377" y="1008.2295">Axum special, because of extractors and such.</text><text fill="#000000" font-family="sans-serif" font-size="14" lengthAdjust="spacing" textLength="348.9199" x="261.1377" y="1024.5264">A handler can have as few or as many of the args</text><text fill="#000000" font-family="sans-serif" font-size="14" lengthAdjust="spacing" textLength="76.4326" x="261.1377" y="1040.8232">as it needs</text><text fill="#000000" font-family="sans-serif" font-size="14" lengthAdjust="spacing" textLength="32.4707" x="265.5879" y="1057.1201">- uri,</text><text fill="#000000" font-family="sans-serif" font-size="14" lengthAdjust="spacing" textLength="35.4238" x="265.5879" y="1073.417">- ctx,</text><text fill="#000000" font-family="sans-serif" font-size="14" lengthAdjust="spacing" textLength="49.417" x="265.5879" y="1089.7139">- state,</text><text fill="#000000" font-family="sans-serif" font-size="14" lengthAdjust="spacing" textLength="98.2734" x="265.5879" y="1106.0107">- req_method,</text><text fill="#000000" font-family="sans-serif" font-size="14" lengthAdjust="spacing" textLength="32.7578" x="265.5879" y="1122.3076">- req</text><text fill="#000000" font-family="sans-serif" font-size="14" lengthAdjust="spacing" textLength="4.4502" x="261.1377" y="1138.6045">&#160;</text><text fill="#000000" font-family="sans-serif" font-size="14" lengthAdjust="spacing" textLength="85.2168" x="265.5879" y="1154.9014">In any order</text><path d="M201.1377,1076.7188 L211.1377,1076.7188 C226.1377,1076.7188 226.1377,1076.7188 241.1377,1076.7188 L251.1377,1076.7188 " fill="none" style="stroke:#181818;stroke-width:1.0;"/><path d="M70.373,655.1406 L80.373,655.1406 C95.373,655.1406 95.373,1076.7188 110.373,1076.7188 L120.373,1076.7188 " fill="none" style="stroke:#181818;stroke-width:1.0;"/><rect fill="#F1F1F1" height="36.2969" rx="12.5" ry="12.5" style="stroke:#181818;stroke-width:1.5;" width="66.3271" x="120.373" y="1221.0938"/><text fill="#000000" font-family="sans-serif" font-size="14" lengthAdjust="spacing" textLength="46.3271" x="130.373" y="1244.0889">Layers</text><text fill="#000000" font-family="sans-serif" font-size="14" lengthAdjust="spacing" textLength="191.9326" x="239.7002" y="1192.1982">added onto main router via</text><text fill="#000000" font-family="sans-serif" font-size="14" font-weight="bold" lengthAdjust="spacing" textLength="68.5234" x="436.083" y="1192.1982">.layer(..)</text><path d="M186.7002,1239.2422 L196.7002,1239.2422 C211.7002,1239.2422 211.7002,1187.3516 226.7002,1187.3516 L236.7002,1187.3516 " fill="none" style="stroke:#181818;stroke-width:1.0;"/><text fill="#000000" font-family="sans-serif" font-size="14" lengthAdjust="spacing" textLength="4.4502" x="239.7002" y="1210.4951">&#160;</text><text fill="#000000" font-family="sans-serif" font-size="14" lengthAdjust="spacing" textLength="321.002" x="239.7002" y="1226.792">layered on top semantically so data is passed</text><text fill="#000000" font-family="sans-serif" font-size="14" lengthAdjust="spacing" textLength="301.834" x="239.7002" y="1243.0889">from bottom to top. i.e., last added layer is</text><text fill="#000000" font-family="sans-serif" font-size="14" lengthAdjust="spacing" textLength="65.4746" x="239.7002" y="1259.3857">used first</text><path d="M186.7002,1239.2422 L196.7002,1239.2422 C211.7002,1239.2422 211.7002,1230.0938 226.7002,1230.0938 L236.7002,1230.0938 " fill="none" style="stroke:#181818;stroke-width:1.0;"/><text fill="#000000" font-family="sans-serif" font-size="14" font-weight="bold" lengthAdjust="spacing" textLength="473.0537" x="239.7002" y="1277.6826">.layer(middleware::map_response(main_response_mapper))</text><path d="M186.7002,1239.2422 L196.7002,1239.2422 C211.7002,1239.2422 211.7002,1272.8359 226.7002,1272.8359 L236.7002,1272.8359 " fill="none" style="stroke:#181818;stroke-width:1.0;"/><text fill="#000000" font-family="sans-serif" font-size="14" font-weight="bold" lengthAdjust="spacing" textLength="280.499" x="239.7002" y="1295.9795">.layer(CookieManagerLayer::new())</text><path d="M186.7002,1239.2422 L196.7002,1239.2422 C211.7002,1239.2422 211.7002,1291.1328 226.7002,1291.1328 L236.7002,1291.1328 " fill="none" style="stroke:#181818;stroke-width:1.0;"/><path d="M70.373,655.1406 L80.373,655.1406 C95.373,655.1406 95.373,1239.2422 110.373,1239.2422 L120.373,1239.2422 " fill="none" style="stroke:#181818;stroke-width:1.0;"/><!--SRC=[xLNVRzis47xdNt507sOBjbG7nL8m69esQTTcCUObRL-Amg2biqr48bMISgB_VaTIijt6neO-3KC21BPvt_t-xkxSEc5S9LLHYPebyFgXgHZxPJo66zquD31-_CUIf9Doc8eQQk7M5fo69FcWdBv5iv4v9WaZO083Bnw1ZQz3_vP0hjK6ZOErK4L9NaZPU-vH4THO17oGracr0a7YpEbx0dSW6-rNQ5QTWj9ghCbkAUhQwtZFEtI0B4LPBaH-D-yz1Hi_sFN8EVWyy5AQ2EaYxSnacO-7SqDb84-Shz1bsH5PhQqNXgg-VN16v4uR2t2uiZi42s6idQijpxALTEjcaURQb-5Ewh6nmL6sAFKYguHKyQSrULRet6OO3QLL4HBOyvnbxuokRl1RWpwoqVSFCo94blcMT1P0W6jhX2LXmAqHJ0I6TFastmxD-LyDcfOI9YFP6ijIlrAYmj-cyWwpxEoOreoQjQzqalKAaOxH9_NKYCh28KfsY5b0iE25_gbWjLQe74428O854X_mdoHdh5UCGMz4INhVV4QTwyUQ8T-W6WErv8-eUwI_lJmqvRshoXrXEWdd_ZdI2QwiLj7mJBIb5iKXkvtf3X7qtkYYtVMSTtP8C9K54VbU68pycX8xopOszwEVW_XCws1kzaBzyamReLRu5IuqqMyx9Hifg5XfALeqWoYQ2YLMQAxz4-SAxmV38Ms3Y1T5GVWysk2yjqQ12GjBQQY1mgpYDg5P_N7ovZIbhdFQ6Kd9vA2t4_sbQV0OodQXbQDM7QzQ1uXftphX45v5rVUTPpYckX_QbsUjf-tzLnutMOsv5EK85fWBlydqifydFuAa2BR9rocmrzijc0j5tpSOIe7te8t_LWdLUcq_ULGQ2umUfGE5M5W6OsYC7FdFt3s4J-jp2DzeKESLkhKk-f-CmGS5mQ8fq7IS3Qqwd6QNQKImleLO05LDWryxOEAb-8u9r87OyZbduILeK5jhQY1bv6HEtMt1QYY44o0jZPUrX6A1YGljdDyssgka85DCHr0ApuxWFTZqMgpnIe4uPp6yRGpLbkcSxzDvuAFU_fgJg4RJKtJ-BzdCpf5kPdStsVd1C_fq9t_gJZuTmKD7yBznuNxsW3rTfyVNwUZj-PzSbgUpyKzdOrPIIf-crq3Bs4fAT9AUF3zvaPuEReMZnLh3yrEOJFZa9P-SmgUF5-35GpRuVNPDDMXCZb3GuZToGJjKgo6x4Xi1DmqLga8EVzQehYx_w1_WhTf8erL5ku9TVPxk0B- -6B-HBgvo0v-dx1ANeYaTQUIwyDkPlByRlsJND6KD9SO15RlGPDUq9Blz6m00]--></g></svg>