<svg xmlns="http://www.w3.org/2000/svg" xmlns:xlink="http://www.w3.org/1999/xlink" contentStyleType="text/css" height="1147px" preserveAspectRatio="none" style="width:1332px;height:1147px;background:#FFFFFF;" version="1.1" viewBox="0 0 1332 1147" width="1332px" zoomAndPan="magnify"><defs/><g><rect fill="none" height="20.9531" style="stroke:none;stroke-width:1.0;" width="1299.5405" x="15" y="12.7451"/><ellipse cx="77.4531" cy="48.6982" fill="#222222" rx="10" ry="10" style="stroke:#222222;stroke-width:1.0;"/><rect fill="#F1F1F1" height="33.9688" rx="12.5" ry="12.5" style="stroke:#181818;stroke-width:0.5;" width="104.0176" x="25.4443" y="78.6982"/><text fill="#000000" font-family="sans-serif" font-size="12" lengthAdjust="spacing" textLength="84.0176" x="35.4443" y="99.8369">HTTP Request</text><rect fill="#F1F1F1" height="33.9688" rx="12.5" ry="12.5" style="stroke:#181818;stroke-width:0.5;" width="107.7031" x="23.6016" y="132.667"/><text fill="#000000" font-family="sans-serif" font-size="12" lengthAdjust="spacing" textLength="87.7031" x="33.6016" y="153.8057">Axum Request</text><rect fill="#F1F1F1" height="33.9688" rx="12.5" ry="12.5" style="stroke:#181818;stroke-width:0.5;" width="112.9063" x="21" y="1059.3506"/><text fill="#000000" font-family="sans-serif" font-size="12" lengthAdjust="spacing" textLength="92.9063" x="31" y="1080.4893">HTTP Response</text><ellipse cx="77.4531" cy="1124.3193" fill="none" rx="11" ry="11" style="stroke:#222222;stroke-width:1.0;"/><ellipse cx="77.4531" cy="1124.3193" fill="#222222" rx="6" ry="6" style="stroke:#222222;stroke-width:1.0;"/><line style="stroke:#000000;stroke-width:1.5;" x1="15" x2="15" y1="12.7451" y2="1135.3193"/><rect fill="#98FB98" height="1122.5742" style="stroke:#98FB98;stroke-width:1.0;" width="211.3662" x="137.9063" y="12.7451"/><rect fill="#F1F1F1" height="117.7813" rx="12.5" ry="12.5" style="stroke:#181818;stroke-width:0.5;" width="131.9551" x="178.6118" y="186.6357"/><text fill="#000000" font-family="sans-serif" font-size="12" lengthAdjust="spacing" textLength="3.8145" x="188.6118" y="207.7744">&#160;</text><text fill="#000000" font-family="sans-serif" font-size="12" font-weight="bold" lengthAdjust="spacing" textLength="69.5391" x="192.4263" y="207.7744">ReqStamp</text><text fill="#000000" font-family="sans-serif" font-size="12" lengthAdjust="spacing" textLength="44.2148" x="200.0552" y="221.7432">+ UUID</text><text fill="#000000" font-family="sans-serif" font-size="12" lengthAdjust="spacing" textLength="82.5879" x="200.0552" y="235.7119">+ TimeStamp</text><text fill="#000000" font-family="sans-serif" font-size="12" lengthAdjust="spacing" textLength="3.8145" x="188.6118" y="249.6807">&#160;</text><text fill="#000000" font-family="sans-serif" font-size="12" font-style="italic" lengthAdjust="spacing" textLength="49.2832" x="188.6118" y="263.6494">Request</text><text fill="#000000" font-family="sans-serif" font-size="12" font-style="italic" lengthAdjust="spacing" textLength="75.0176" x="188.6118" y="277.6182">&#8594;extensions</text><text fill="#000000" font-family="sans-serif" font-size="12" font-style="italic" lengthAdjust="spacing" textLength="111.9551" x="188.6118" y="291.5869">&#8594;add( ReqStamp )</text><line style="stroke:#000000;stroke-width:1.5;" x1="137.9063" x2="137.9063" y1="12.7451" y2="1135.3193"/><rect fill="#FFD700" height="1122.5742" style="stroke:#FFD700;stroke-width:1.0;" width="185.7246" x="349.2725" y="12.7451"/><rect fill="#F1F1F1" height="33.9688" rx="12.5" ry="12.5" style="stroke:#181818;stroke-width:0.5;" width="149.5215" x="368.374" y="324.417"/><text fill="#000000" font-family="sans-serif" font-size="12" font-weight="bold" lengthAdjust="spacing" textLength="129.5215" x="378.374" y="345.5557">validate web token</text><rect fill="#F1F1F1" height="61.9063" rx="12.5" ry="12.5" style="stroke:#181818;stroke-width:0.5;" width="175.7246" x="355.2725" y="378.3857"/><text fill="#000000" font-family="sans-serif" font-size="12" font-weight="bold" lengthAdjust="spacing" textLength="117.9082" x="365.2725" y="399.5244">create new token</text><text fill="#000000" font-family="sans-serif" font-size="12" lengthAdjust="spacing" textLength="148.0957" x="372.9014" y="413.4932">expiry = now + duration</text><text fill="#000000" font-family="sans-serif" font-size="12" font-weight="bold" lengthAdjust="spacing" textLength="69.0293" x="365.2725" y="427.4619">set cookie</text><rect fill="#F1F1F1" height="103.8125" rx="12.5" ry="12.5" style="stroke:#181818;stroke-width:0.5;" width="173.9785" x="356.1455" y="460.292"/><text fill="#000000" font-family="sans-serif" font-size="12" font-weight="bold" lengthAdjust="spacing" textLength="131.209" x="366.1455" y="481.4307">create Ctx instance</text><text fill="#000000" font-family="sans-serif" font-size="12" font-weight="bold" lengthAdjust="spacing" textLength="153.9785" x="366.1455" y="495.3994">Wrap in CtxW instance</text><text fill="#000000" font-family="sans-serif" font-size="12" lengthAdjust="spacing" textLength="3.8145" x="366.1455" y="509.3682">&#160;</text><text fill="#000000" font-family="sans-serif" font-size="12" font-style="italic" lengthAdjust="spacing" textLength="49.2832" x="366.1455" y="523.3369">Request</text><text fill="#000000" font-family="sans-serif" font-size="12" font-style="italic" lengthAdjust="spacing" textLength="75.0176" x="366.1455" y="537.3057">&#8594;extensions</text><text fill="#000000" font-family="sans-serif" font-size="12" font-style="italic" lengthAdjust="spacing" textLength="139.4121" x="366.1455" y="551.2744">&#8594;add( Result&lt;CtxW&gt; )</text><line style="stroke:#000000;stroke-width:1.5;" x1="349.2725" x2="349.2725" y1="12.7451" y2="1135.3193"/><rect fill="#F5F5DC" height="1122.5742" style="stroke:#F5F5DC;stroke-width:1.0;" width="224.0898" x="534.9971" y="12.7451"/><rect fill="#F1F1F1" height="47.9375" rx="12.5" ry="12.5" style="stroke:#181818;stroke-width:0.5;" width="189.0898" x="540.9971" y="947.4131"/><text fill="#000000" font-family="sans-serif" font-size="12" lengthAdjust="spacing" textLength="87.3809" x="550.9971" y="968.5518">server_error &#8594;</text><text fill="#000000" font-family="sans-serif" font-size="12" font-weight="bold" lengthAdjust="spacing" textLength="77.8945" x="642.1924" y="968.5518">client_error</text><text fill="#000000" font-family="sans-serif" font-size="12" lengthAdjust="spacing" textLength="87.3809" x="550.9971" y="982.5205">server_error &#8594;</text><text fill="#000000" font-family="sans-serif" font-size="12" font-weight="bold" lengthAdjust="spacing" textLength="70.4004" x="642.1924" y="982.5205">error code</text><polygon fill="#F1F1F1" points="623.542,899.0107,647.542,899.0107,659.542,911.0107,647.542,923.0107,623.542,923.0107,611.542,911.0107,623.542,899.0107" style="stroke:#181818;stroke-width:0.5;"/><text fill="#000000" font-family="sans-serif" font-size="11" lengthAdjust="spacing" textLength="55" x="639.542" y="933.2212">map error</text><text fill="#000000" font-family="sans-serif" font-size="11" lengthAdjust="spacing" textLength="15.8125" x="627.6357" y="914.8188">err</text><polygon fill="#F1F1F1" points="635.542,1015.3506,647.542,1027.3506,635.542,1039.3506,623.542,1027.3506,635.542,1015.3506" style="stroke:#181818;stroke-width:0.5;"/><line style="stroke:#000000;stroke-width:1.5;" x1="534.9971" x2="534.9971" y1="12.7451" y2="1135.3193"/><rect fill="#FF7F50" height="1122.5742" style="stroke:#FF7F50;stroke-width:1.0;" width="325.4434" x="759.0869" y="12.7451"/><rect fill="#555555" height="6" rx="2.5" ry="2.5" style="stroke:#555555;stroke-width:1.0;" width="315.4434" x="765.0869" y="584.1045"/><rect fill="#555555" height="6" rx="2.5" ry="2.5" style="stroke:#555555;stroke-width:1.0;" width="159.1777" x="777.0869" y="668.0732"/><rect fill="#F1F1F1" height="33.9688" rx="12.5" ry="12.5" style="stroke:#181818;stroke-width:0.5;" width="49.2324" x="789.0869" y="694.0732"/><text fill="#000000" font-family="sans-serif" font-size="12" lengthAdjust="spacing" textLength="29.2324" x="799.0869" y="715.2119">login</text><rect fill="#F1F1F1" height="33.9688" rx="12.5" ry="12.5" style="stroke:#181818;stroke-width:0.5;" width="57.9453" x="866.3193" y="694.0732"/><text fill="#000000" font-family="sans-serif" font-size="12" lengthAdjust="spacing" textLength="37.9453" x="876.3193" y="715.2119">logout</text><polygon fill="#F1F1F1" points="856.6758,748.042,868.6758,760.042,856.6758,772.042,844.6758,760.042,856.6758,748.042" style="stroke:#181818;stroke-width:0.5;"/><rect fill="#F1F1F1" height="33.9688" rx="12.5" ry="12.5" style="stroke:#181818;stroke-width:0.5;" width="39.1484" x="1029.3818" y="610.1045"/><text fill="#000000" font-family="sans-serif" font-size="12" lengthAdjust="spacing" textLength="19.1484" x="1039.3818" y="631.2432">rpc</text><rect fill="#F1F1F1" height="33.9688" rx="12.5" ry="12.5" style="stroke:#181818;stroke-width:0.5;" width="93.8223" x="946.2646" y="777.042"/><text fill="#000000" font-family="sans-serif" font-size="12" lengthAdjust="spacing" textLength="73.8223" x="956.2646" y="798.1807">/api/rpc/1..N</text><line style="stroke:#000000;stroke-width:1.5;" x1="759.0869" x2="759.0869" y1="12.7451" y2="1135.3193"/><rect fill="#00FFFF" height="1122.5742" style="stroke:#00FFFF;stroke-width:1.0;" width="228.1494" x="1084.5303" y="12.7451"/><rect fill="#F1F1F1" height="33.9688" rx="12.5" ry="12.5" style="stroke:#181818;stroke-width:0.5;" width="86.7793" x="1164.8604" y="664.0732"/><text fill="#000000" font-family="sans-serif" font-size="12" lengthAdjust="spacing" textLength="66.7793" x="1174.8604" y="685.2119">extract Ctx</text><polygon fill="#F1F1F1" points="1183.7551,733.042,1232.7449,733.042,1244.7449,745.042,1232.7449,757.042,1183.7551,757.042,1171.7551,745.042,1183.7551,733.042" style="stroke:#181818;stroke-width:0.5;"/><text fill="#000000" font-family="sans-serif" font-size="11" lengthAdjust="spacing" textLength="48.9897" x="1183.7551" y="748.8501">have Ctx</text><text fill="#000000" font-family="sans-serif" font-size="11" lengthAdjust="spacing" textLength="29.3047" x="1142.4504" y="742.4478">route</text><text fill="#000000" font-family="sans-serif" font-size="11" lengthAdjust="spacing" textLength="45.2192" x="1244.7449" y="742.4478">fail auth</text><rect fill="#F1F1F1" height="33.9688" rx="12.5" ry="12.5" style="stroke:#181818;stroke-width:0.5;" width="89.2988" x="1219.3809" y="777.042"/><text fill="#000000" font-family="sans-serif" font-size="12" lengthAdjust="spacing" textLength="69.2988" x="1229.3809" y="798.1807">CtxExtError</text><polygon fill="#F1F1F1" points="1208.25,821.0107,1220.25,833.0107,1208.25,845.0107,1196.25,833.0107,1208.25,821.0107" style="stroke:#181818;stroke-width:0.5;"/><polygon fill="#F1F1F1" points="1111.5303,855.0107,1123.5303,867.0107,1111.5303,879.0107,1099.5303,867.0107,1111.5303,855.0107" style="stroke:#181818;stroke-width:0.5;"/><line style="stroke:#000000;stroke-width:1.5;" x1="1084.5303" x2="1084.5303" y1="12.7451" y2="1135.3193"/><line style="stroke:#000000;stroke-width:1.5;" x1="1312.6797" x2="1312.6797" y1="12.7451" y2="1135.3193"/><line style="stroke:#181818;stroke-width:1.0;" x1="77.4531" x2="77.4531" y1="58.6982" y2="78.6982"/><polygon fill="#181818" points="73.4531,68.6982,77.4531,78.6982,81.4531,68.6982,77.4531,72.6982" style="stroke:#181818;stroke-width:1.0;"/><line style="stroke:#181818;stroke-width:1.0;" x1="77.4531" x2="77.4531" y1="112.667" y2="132.667"/><polygon fill="#181818" points="73.4531,122.667,77.4531,132.667,81.4531,122.667,77.4531,126.667" style="stroke:#181818;stroke-width:1.0;"/><line style="stroke:#181818;stroke-width:1.0;" x1="77.4531" x2="77.4531" y1="1093.3193" y2="1113.3193"/><polygon fill="#181818" points="73.4531,1103.3193,77.4531,1113.3193,81.4531,1103.3193,77.4531,1107.3193" style="stroke:#181818;stroke-width:1.0;"/><line style="stroke:#181818;stroke-width:1.0;" x1="443.1348" x2="443.1348" y1="358.3857" y2="378.3857"/><polygon fill="#181818" points="439.1348,368.3857,443.1348,378.3857,447.1348,368.3857,443.1348,372.3857" style="stroke:#181818;stroke-width:1.0;"/><line style="stroke:#181818;stroke-width:1.0;" x1="443.1348" x2="443.1348" y1="440.292" y2="460.292"/><polygon fill="#181818" points="439.1348,450.292,443.1348,460.292,447.1348,450.292,443.1348,454.292" style="stroke:#181818;stroke-width:1.0;"/><line style="stroke:#181818;stroke-width:1.0;" x1="635.542" x2="635.542" y1="923.0107" y2="947.4131"/><polygon fill="#181818" points="631.542,937.4131,635.542,947.4131,639.542,937.4131,635.542,941.4131" style="stroke:#181818;stroke-width:1.0;"/><line style="stroke:#181818;stroke-width:1.0;" x1="659.542" x2="740.0869" y1="911.0107" y2="911.0107"/><polygon fill="#181818" points="736.0869,961.3818,740.0869,971.3818,744.0869,961.3818,740.0869,965.3818" style="stroke:#181818;stroke-width:1.0;"/><line style="stroke:#181818;stroke-width:1.0;" x1="740.0869" x2="740.0869" y1="911.0107" y2="1027.3506"/><line style="stroke:#181818;stroke-width:1.0;" x1="740.0869" x2="647.542" y1="1027.3506" y2="1027.3506"/><polygon fill="#181818" points="657.542,1023.3506,647.542,1027.3506,657.542,1031.3506,653.542,1027.3506" style="stroke:#181818;stroke-width:1.0;"/><line style="stroke:#181818;stroke-width:1.0;" x1="635.542" x2="635.542" y1="995.3506" y2="1015.3506"/><polygon fill="#181818" points="631.542,1005.3506,635.542,1015.3506,639.542,1005.3506,635.542,1009.3506" style="stroke:#181818;stroke-width:1.0;"/><line style="stroke:#181818;stroke-width:1.0;" x1="813.7031" x2="813.7031" y1="674.0732" y2="694.0732"/><polygon fill="#181818" points="809.7031,684.0732,813.7031,694.0732,817.7031,684.0732,813.7031,688.0732" style="stroke:#181818;stroke-width:1.0;"/><line style="stroke:#181818;stroke-width:1.0;" x1="895.292" x2="895.292" y1="674.0732" y2="694.0732"/><polygon fill="#181818" points="891.292,684.0732,895.292,694.0732,899.292,684.0732,895.292,688.0732" style="stroke:#181818;stroke-width:1.0;"/><line style="stroke:#181818;stroke-width:1.0;" x1="813.7031" x2="813.7031" y1="728.042" y2="760.042"/><line style="stroke:#181818;stroke-width:1.0;" x1="813.7031" x2="844.6758" y1="760.042" y2="760.042"/><polygon fill="#181818" points="834.6758,756.042,844.6758,760.042,834.6758,764.042,838.6758,760.042" style="stroke:#181818;stroke-width:1.0;"/><line style="stroke:#181818;stroke-width:1.0;" x1="895.292" x2="895.292" y1="728.042" y2="760.042"/><line style="stroke:#181818;stroke-width:1.0;" x1="895.292" x2="868.6758" y1="760.042" y2="760.042"/><polygon fill="#181818" points="878.6758,756.042,868.6758,760.042,878.6758,764.042,874.6758,760.042" style="stroke:#181818;stroke-width:1.0;"/><line style="stroke:#181818;stroke-width:1.0;" x1="856.6758" x2="856.6758" y1="590.1045" y2="668.0732"/><polygon fill="#181818" points="852.6758,658.0732,856.6758,668.0732,860.6758,658.0732,856.6758,662.0732" style="stroke:#181818;stroke-width:1.0;"/><line style="stroke:#181818;stroke-width:1.0;" x1="1048.9561" x2="1048.9561" y1="590.1045" y2="610.1045"/><polygon fill="#181818" points="1044.9561,600.1045,1048.9561,610.1045,1052.9561,600.1045,1048.9561,604.1045" style="stroke:#181818;stroke-width:1.0;"/><line style="stroke:#181818;stroke-width:1.0;" x1="1244.7449" x2="1264.0303" y1="745.042" y2="745.042"/><line style="stroke:#181818;stroke-width:1.0;" x1="1264.0303" x2="1264.0303" y1="745.042" y2="777.042"/><polygon fill="#181818" points="1260.0303,767.042,1264.0303,777.042,1268.0303,767.042,1264.0303,771.042" style="stroke:#181818;stroke-width:1.0;"/><line style="stroke:#181818;stroke-width:1.0;" x1="1264.0303" x2="1264.0303" y1="811.0107" y2="833.0107"/><line style="stroke:#181818;stroke-width:1.0;" x1="1264.0303" x2="1220.25" y1="833.0107" y2="833.0107"/><polygon fill="#181818" points="1230.25,829.0107,1220.25,833.0107,1230.25,837.0107,1226.25,833.0107" style="stroke:#181818;stroke-width:1.0;"/><line style="stroke:#181818;stroke-width:1.0;" x1="1208.25" x2="1208.25" y1="698.042" y2="733.042"/><polygon fill="#181818" points="1204.25,723.042,1208.25,733.042,1212.25,723.042,1208.25,727.042" style="stroke:#181818;stroke-width:1.0;"/><line style="stroke:#181818;stroke-width:1.0;" x1="1208.25" x2="1208.25" y1="845.0107" y2="867.0107"/><line style="stroke:#181818;stroke-width:1.0;" x1="1208.25" x2="1123.5303" y1="867.0107" y2="867.0107"/><polygon fill="#181818" points="1133.5303,863.0107,1123.5303,867.0107,1133.5303,871.0107,1129.5303,867.0107" style="stroke:#181818;stroke-width:1.0;"/><line style="stroke:#181818;stroke-width:1.0;" x1="77.4531" x2="77.4531" y1="166.6357" y2="171.6357"/><line style="stroke:#181818;stroke-width:1.0;" x1="77.4531" x2="244.5894" y1="171.6357" y2="171.6357"/><line style="stroke:#181818;stroke-width:1.0;" x1="244.5894" x2="244.5894" y1="171.6357" y2="186.6357"/><polygon fill="#181818" points="240.5894,176.6357,244.5894,186.6357,248.5894,176.6357,244.5894,180.6357" style="stroke:#181818;stroke-width:1.0;"/><line style="stroke:#181818;stroke-width:1.0;" x1="244.5894" x2="244.5894" y1="304.417" y2="309.417"/><line style="stroke:#181818;stroke-width:1.0;" x1="244.5894" x2="443.1348" y1="309.417" y2="309.417"/><line style="stroke:#181818;stroke-width:1.0;" x1="443.1348" x2="443.1348" y1="309.417" y2="324.417"/><polygon fill="#181818" points="439.1348,314.417,443.1348,324.417,447.1348,314.417,443.1348,318.417" style="stroke:#181818;stroke-width:1.0;"/><line style="stroke:#181818;stroke-width:1.0;" x1="1048.9561" x2="1048.9561" y1="644.0732" y2="649.0732"/><line style="stroke:#181818;stroke-width:1.0;" x1="1048.9561" x2="1208.25" y1="649.0732" y2="649.0732"/><line style="stroke:#181818;stroke-width:1.0;" x1="1208.25" x2="1208.25" y1="649.0732" y2="664.0732"/><polygon fill="#181818" points="1204.25,654.0732,1208.25,664.0732,1212.25,654.0732,1208.25,658.0732" style="stroke:#181818;stroke-width:1.0;"/><line style="stroke:#181818;stroke-width:1.0;" x1="1171.7551" x2="993.1758" y1="745.042" y2="745.042"/><line style="stroke:#181818;stroke-width:1.0;" x1="993.1758" x2="993.1758" y1="745.042" y2="777.042"/><polygon fill="#181818" points="989.1758,767.042,993.1758,777.042,997.1758,767.042,993.1758,771.042" style="stroke:#181818;stroke-width:1.0;"/><line style="stroke:#181818;stroke-width:1.0;" x1="993.1758" x2="993.1758" y1="811.0107" y2="833.0107"/><line style="stroke:#181818;stroke-width:1.0;" x1="993.1758" x2="1196.25" y1="833.0107" y2="833.0107"/><polygon fill="#181818" points="1186.25,829.0107,1196.25,833.0107,1186.25,837.0107,1190.25,833.0107" style="stroke:#181818;stroke-width:1.0;"/><line style="stroke:#181818;stroke-width:1.0;" x1="443.1348" x2="443.1348" y1="564.1045" y2="569.1045"/><line style="stroke:#181818;stroke-width:1.0;" x1="443.1348" x2="952.2363" y1="569.1045" y2="569.1045"/><line style="stroke:#181818;stroke-width:1.0;" x1="952.2363" x2="952.2363" y1="569.1045" y2="584.1045"/><polygon fill="#181818" points="948.2363,574.1045,952.2363,584.1045,956.2363,574.1045,952.2363,578.1045" style="stroke:#181818;stroke-width:1.0;"/><line style="stroke:#181818;stroke-width:1.0;" x1="1111.5303" x2="1111.5303" y1="879.0107" y2="884.0107"/><line style="stroke:#181818;stroke-width:1.0;" x1="1111.5303" x2="635.542" y1="884.0107" y2="884.0107"/><line style="stroke:#181818;stroke-width:1.0;" x1="635.542" x2="635.542" y1="884.0107" y2="899.0107"/><polygon fill="#181818" points="631.542,889.0107,635.542,899.0107,639.542,889.0107,635.542,893.0107" style="stroke:#181818;stroke-width:1.0;"/><line style="stroke:#181818;stroke-width:1.0;" x1="635.542" x2="635.542" y1="1039.3506" y2="1044.3506"/><line style="stroke:#181818;stroke-width:1.0;" x1="635.542" x2="77.4531" y1="1044.3506" y2="1044.3506"/><line style="stroke:#181818;stroke-width:1.0;" x1="77.4531" x2="77.4531" y1="1044.3506" y2="1059.3506"/><polygon fill="#181818" points="73.4531,1049.3506,77.4531,1059.3506,81.4531,1049.3506,77.4531,1053.3506" style="stroke:#181818;stroke-width:1.0;"/><text fill="#000000" font-family="sans-serif" font-size="18" lengthAdjust="spacing" textLength="51.9082" x="53.3599" y="29.4531">Axum</text><text fill="#000000" font-family="sans-serif" font-size="18" lengthAdjust="spacing" textLength="195.6445" x="148.6279" y="29.4531">MW Request Stamper</text><text fill="#000000" font-family="sans-serif" font-size="18" lengthAdjust="spacing" textLength="153.1494" x="368.4209" y="29.4531">MW Ctx Resolver</text><text fill="#000000" font-family="sans-serif" font-size="18" lengthAdjust="spacing" textLength="199.916" x="549.9448" y="29.4531">MW Response Mapper</text><text fill="#000000" font-family="sans-serif" font-size="18" lengthAdjust="spacing" textLength="62.4375" x="893.4507" y="29.4531">Routes</text><text fill="#000000" font-family="sans-serif" font-size="18" lengthAdjust="spacing" textLength="185.4932" x="1108.7192" y="29.4531">MW Require Context</text><!--SRC=[bLF1Rjim3BthAmZiadX0ZLtjRK3H5TWE7OOkHO-1AZEE45joQJbn0Ptt0Vl4VSaeAOwJeZlC9_hnYNoFehpqS3qEhV3lEjbWJOZ6juSruVEwTxBja3pSFS8zFW_OE_YPCARNjga2KxcHsRrjzaVgZHkPdW3cFQ6kCPNiEsjwNBUocyic3EuYndHbIJQUi_TsSDW7v4KQJ-eaGnF2ZJKEHoU4yD8B5aeS5rzNgn-Jqb8KmTVyArxR4WLa6QUZfImJ0F0U7Xw-VKdHIhSOKqBa-R5AddFyvzTlRescrwnyGcHLBM0g1iiyFpQyc8ueicml6rr9Xt309t1sXoRBof1GX04sU9XWre5Zf-a5Fe6n1zPK3IGTjnLPrgC3PUrEu-NvC7rjsADHd67Y8ycEaP1uFC_yXwj-QDp7SFxpcRFNroduqeJOMDhn-23C4C9F3C9NDBRMfZpzHwQifJON5BxrybG0JGKjKetYNoUeKtF9i2LpYksGL2uOdobw0ukjtCSvBS5jqS22mgOjOzEpKduAvugvx7JE7VCFLrVVorDUNFJ6XjTviP6w0JcuxN8-pYrlHtTBPAcSxEdDyRGNizctvnkr8z4act70K2osA7eath5rH83lZfTRDHgDIr1Qy3T8ALQsYekKD4LNuMLDJof9AVcbsUul]--></g></svg>