<svg xmlns="http://www.w3.org/2000/svg" xmlns:xlink="http://www.w3.org/1999/xlink" contentStyleType="text/css" height="1525px" preserveAspectRatio="none" style="width:881px;height:1525px;background:#FFFFFF;" version="1.1" viewBox="0 0 881 1525" width="881px" zoomAndPan="magnify"><defs/><g><rect fill="#F1F1F1" height="36.2969" rx="12.5" ry="12.5" style="stroke:#181818;stroke-width:1.5;" width="51.3838" x="10" y="529.918"/><text fill="#000000" font-family="sans-serif" font-size="14" lengthAdjust="spacing" textLength="31.3838" x="20" y="552.9131">Rust</text><rect fill="#F1F1F1" height="36.2969" rx="12.5" ry="12.5" style="stroke:#181818;stroke-width:1.5;" width="84.7637" x="111.3838" y="44.4453"/><text fill="#000000" font-family="sans-serif" font-size="14" lengthAdjust="spacing" textLength="60.3135" x="121.3838" y="67.4404">Function</text><rect fill="#F1F1F1" height="85.1875" rx="12.5" ry="12.5" style="stroke:#181818;stroke-width:1.5;" width="363.3418" x="246.1475" y="20"/><text fill="#000000" font-family="sans-serif" font-size="14" lengthAdjust="spacing" textLength="82.0654" x="260.5977" y="42.9951">args can be</text><text fill="#000000" font-family="sans-serif" font-size="14" font-weight="bold" lengthAdjust="spacing" textLength="153.877" x="347.1133" y="42.9951">direct destructured</text><text fill="#000000" font-family="sans-serif" font-size="14" lengthAdjust="spacing" textLength="90.8428" x="505.4404" y="42.9951">from structs!</text><text fill="#000000" font-family="sans-serif" font-size="14" lengthAdjust="spacing" textLength="207.3271" x="260.5977" y="59.292">- if tuple names used in order</text><text fill="#000000" font-family="sans-serif" font-size="14" lengthAdjust="spacing" textLength="338.8916" x="260.5977" y="75.5889">- if struct, names must match struct field names</text><text fill="#000000" font-family="sans-serif" font-size="14" lengthAdjust="spacing" textLength="213.377" x="269.498" y="91.8857">order need not be preserved ?</text><text fill="#000000" font-family="sans-serif" font-size="14" lengthAdjust="spacing" textLength="205.3447" x="662.4893" y="58.292">func ( TupleStructName(a,b))</text><path d="M609.4893,62.5938 L619.4893,62.5938 C634.4893,62.5938 634.4893,53.4453 649.4893,53.4453 L659.4893,53.4453 " fill="none" style="stroke:#181818;stroke-width:1.0;"/><text fill="#000000" font-family="sans-serif" font-size="14" lengthAdjust="spacing" textLength="206.7529" x="662.4893" y="76.5889">func ( FieldStructName{a,b})</text><path d="M609.4893,62.5938 L619.4893,62.5938 C634.4893,62.5938 634.4893,71.7422 649.4893,71.7422 L659.4893,71.7422 " fill="none" style="stroke:#181818;stroke-width:1.0;"/><path d="M196.1475,62.5938 L206.1475,62.5938 C221.1475,62.5938 221.1475,62.5938 236.1475,62.5938 L246.1475,62.5938 " fill="none" style="stroke:#181818;stroke-width:1.0;"/><path d="M61.3838,548.0664 L71.3838,548.0664 C86.3838,548.0664 86.3838,62.5938 101.3838,62.5938 L111.3838,62.5938 " fill="none" style="stroke:#181818;stroke-width:1.0;"/><rect fill="#F1F1F1" height="36.2969" rx="12.5" ry="12.5" style="stroke:#181818;stroke-width:1.5;" width="61.6309" x="111.3838" y="138.5586"/><text fill="#000000" font-family="sans-serif" font-size="14" lengthAdjust="spacing" textLength="41.6309" x="121.3838" y="161.5537">Types</text><text fill="#000000" font-family="sans-serif" font-size="14" font-weight="bold" lengthAdjust="spacing" textLength="12.7969" x="226.0146" y="129.1826">()</text><text fill="#000000" font-family="sans-serif" font-size="14" lengthAdjust="spacing" textLength="45.2607" x="243.2617" y="129.1826">is void</text><path d="M173.0146,156.707 L183.0146,156.707 C198.0146,156.707 198.0146,124.3359 213.0146,124.3359 L223.0146,124.3359 " fill="none" style="stroke:#181818;stroke-width:1.0;"/><rect fill="#F1F1F1" height="36.2969" rx="12.5" ry="12.5" style="stroke:#181818;stroke-width:1.5;" width="67.291" x="223.0146" y="143.4844"/><text fill="#000000" font-family="sans-serif" font-size="14" lengthAdjust="spacing" textLength="47.291" x="233.0146" y="166.4795">enums</text><text fill="#000000" font-family="sans-serif" font-size="14" lengthAdjust="spacing" textLength="112.3281" x="343.3057" y="139.0342">items are called</text><text fill="#000000" font-family="sans-serif" font-size="14" font-weight="bold" lengthAdjust="spacing" textLength="66.4248" x="460.084" y="139.0342">Variants</text><path d="M290.3057,161.6328 L300.3057,161.6328 C315.3057,161.6328 315.3057,134.1875 330.3057,134.1875 L340.3057,134.1875 " fill="none" style="stroke:#181818;stroke-width:1.0;"/><text fill="#000000" font-family="sans-serif" font-size="14" lengthAdjust="spacing" textLength="160.6377" x="343.3057" y="157.3311">variants can be structs</text><path d="M290.3057,161.6328 L300.3057,161.6328 C315.3057,161.6328 315.3057,152.4844 330.3057,152.4844 L340.3057,152.4844 " fill="none" style="stroke:#181818;stroke-width:1.0;"/><text fill="#000000" font-family="sans-serif" font-size="14" lengthAdjust="spacing" textLength="363.6719" x="343.3057" y="175.6279">have to be CamelCased! unless specially annotated</text><path d="M290.3057,161.6328 L300.3057,161.6328 C315.3057,161.6328 315.3057,170.7813 330.3057,170.7813 L340.3057,170.7813 " fill="none" style="stroke:#181818;stroke-width:1.0;"/><text fill="#000000" font-family="sans-serif" font-size="14" font-weight="bold" lengthAdjust="spacing" textLength="255.3428" x="343.3057" y="193.9248">#[allow(non_camel_case_types)]</text><path d="M290.3057,161.6328 L300.3057,161.6328 C315.3057,161.6328 315.3057,189.0781 330.3057,189.0781 L340.3057,189.0781 " fill="none" style="stroke:#181818;stroke-width:1.0;"/><path d="M173.0146,156.707 L183.0146,156.707 C198.0146,156.707 198.0146,161.6328 213.0146,161.6328 L223.0146,161.6328 " fill="none" style="stroke:#181818;stroke-width:1.0;"/><path d="M61.3838,548.0664 L71.3838,548.0664 C86.3838,548.0664 86.3838,156.707 101.3838,156.707 L111.3838,156.707 " fill="none" style="stroke:#181818;stroke-width:1.0;"/><rect fill="#F1F1F1" height="36.2969" rx="12.5" ry="12.5" style="stroke:#181818;stroke-width:1.5;" width="35.1484" x="111.3838" y="240.8203"/><text fill="#000000" font-family="sans-serif" font-size="14" lengthAdjust="spacing" textLength="15.1484" x="121.3838" y="263.8154">IO</text><rect fill="#F1F1F1" height="101.4844" rx="12.5" ry="12.5" style="stroke:#181818;stroke-width:1.5;" width="464.6436" x="196.5322" y="208.2266"/><text fill="#000000" font-family="sans-serif" font-size="14" lengthAdjust="spacing" textLength="4.4502" x="206.5322" y="231.2217">&#160;</text><text fill="#000000" font-family="sans-serif" font-size="14" font-weight="bold" lengthAdjust="spacing" textLength="19.9336" x="210.9824" y="231.2217">{}</text><text fill="#000000" font-family="sans-serif" font-size="14" lengthAdjust="spacing" textLength="222.667" x="230.916" y="231.2217">, the format specifier, is of form</text><text fill="#000000" font-family="sans-serif" font-size="14" font-weight="bold" lengthAdjust="spacing" textLength="122.8076" x="206.5322" y="247.5186">{ obj : format }</text><text fill="#000000" font-family="sans-serif" font-size="14" lengthAdjust="spacing" textLength="5.0518" x="210.9824" y="263.8154">-</text><text fill="#000000" font-family="sans-serif" font-size="14" font-style="italic" lengthAdjust="spacing" textLength="58.6865" x="220.4844" y="263.8154">format=</text><text fill="#000000" font-family="sans-serif" font-size="14" lengthAdjust="spacing" textLength="4.4502" x="279.1709" y="263.8154">&#160;</text><text fill="#000000" font-family="sans-serif" font-size="14" font-weight="bold" lengthAdjust="spacing" textLength="8.1211" x="283.6211" y="263.8154">?</text><text fill="#000000" font-family="sans-serif" font-size="14" lengthAdjust="spacing" textLength="127.1416" x="301.0664" y="263.8154">means Debug, via</text><text fill="#000000" font-family="sans-serif" font-size="14" font-weight="bold" lengthAdjust="spacing" textLength="138.291" x="432.6582" y="263.8154">[#derive(Debug)]</text><text fill="#000000" font-family="sans-serif" font-size="14" lengthAdjust="spacing" textLength="75.7764" x="575.3994" y="263.8154">annotation</text><text fill="#000000" font-family="sans-serif" font-size="14" lengthAdjust="spacing" textLength="315.4238" x="210.9824" y="280.1123">- No format means obj should implement the</text><text fill="#000000" font-family="sans-serif" font-size="14" lengthAdjust="spacing" textLength="149.8506" x="219.8828" y="296.4092">std::fmt::Display trait</text><path d="M146.5322,258.9688 L156.5322,258.9688 C171.5322,258.9688 171.5322,258.9688 186.5322,258.9688 L196.5322,258.9688 " fill="none" style="stroke:#181818;stroke-width:1.0;"/><path d="M61.3838,548.0664 L71.3838,548.0664 C86.3838,548.0664 86.3838,258.9688 101.3838,258.9688 L111.3838,258.9688 " fill="none" style="stroke:#181818;stroke-width:1.0;"/><rect fill="#F1F1F1" height="36.2969" rx="12.5" ry="12.5" style="stroke:#181818;stroke-width:1.5;" width="60.7285" x="111.3838" y="461.3438"/><text fill="#000000" font-family="sans-serif" font-size="14" lengthAdjust="spacing" textLength="40.7285" x="121.3838" y="484.3389">async</text><text fill="#000000" font-family="sans-serif" font-size="14" font-weight="bold" lengthAdjust="spacing" textLength="66.1035" x="225.1123" y="333.7061">async fn</text><text fill="#000000" font-family="sans-serif" font-size="14" lengthAdjust="spacing" textLength="130.833" x="295.666" y="333.7061">syntactic sugar for</text><text fill="#000000" font-family="sans-serif" font-size="14" font-weight="bold" lengthAdjust="spacing" textLength="134.9072" x="430.9492" y="333.7061">fn .. -&gt; Future&lt;&gt;</text><path d="M172.1123,479.4922 L182.1123,479.4922 C197.1123,479.4922 197.1123,328.8594 212.1123,328.8594 L222.1123,328.8594 " fill="none" style="stroke:#181818;stroke-width:1.0;"/><text fill="#000000" font-family="sans-serif" font-size="14" font-weight="bold" lengthAdjust="spacing" textLength="43.3193" x="225.1123" y="352.0029">await</text><text fill="#000000" font-family="sans-serif" font-size="14" lengthAdjust="spacing" textLength="80.4932" x="272.8818" y="352.0029">waits on an</text><text fill="#000000" font-family="sans-serif" font-size="14" font-style="italic" lengthAdjust="spacing" textLength="40.7285" x="357.8252" y="352.0029">async</text><text fill="#000000" font-family="sans-serif" font-size="14" lengthAdjust="spacing" textLength="67.2178" x="403.0039" y="352.0029">operation</text><path d="M172.1123,479.4922 L182.1123,479.4922 C197.1123,479.4922 197.1123,347.1563 212.1123,347.1563 L222.1123,347.1563 " fill="none" style="stroke:#181818;stroke-width:1.0;"/><rect fill="#F1F1F1" height="150.375" rx="12.5" ry="12.5" style="stroke:#181818;stroke-width:1.5;" width="397.8564" x="222.1123" y="366.3047"/><text fill="#000000" font-family="sans-serif" font-size="14" lengthAdjust="spacing" textLength="4.4502" x="232.1123" y="389.2998">&#160;</text><text fill="#000000" font-family="sans-serif" font-size="14" font-weight="bold" lengthAdjust="spacing" textLength="46.6416" x="236.5625" y="389.2998">awat?</text><text fill="#000000" font-family="sans-serif" font-size="14" lengthAdjust="spacing" textLength="33.0859" x="287.6543" y="389.2998">is an</text><text fill="#000000" font-family="sans-serif" font-size="14" font-style="italic" lengthAdjust="spacing" textLength="37.9873" x="325.1904" y="389.2998">await</text><text fill="#000000" font-family="sans-serif" font-size="14" lengthAdjust="spacing" textLength="158.1016" x="367.6279" y="389.2998">operator followed by a</text><text fill="#000000" font-family="sans-serif" font-size="14" font-weight="bold" lengthAdjust="spacing" textLength="8.1211" x="530.1797" y="389.2998">?</text><text fill="#000000" font-family="sans-serif" font-size="14" lengthAdjust="spacing" textLength="67.2178" x="542.751" y="389.2998">operation</text><text fill="#000000" font-family="sans-serif" font-size="14" lengthAdjust="spacing" textLength="114.3447" x="236.5625" y="405.5967">syntax sugar for</text><text fill="#000000" font-family="sans-serif" font-size="14" font-style="italic" lengthAdjust="spacing" textLength="104.1455" x="355.3574" y="405.5967">return on error</text><text fill="#000000" font-family="sans-serif" font-size="14" lengthAdjust="spacing" textLength="57.0527" x="463.9531" y="405.5967">equiv to</text><text fill="#000000" font-family="sans-serif" font-size="14" lengthAdjust="spacing" textLength="4.4502" x="232.1123" y="421.8936">&#160;</text><text fill="#000000" font-family="sans-serif" font-size="14" lengthAdjust="spacing" textLength="4.4502" x="232.1123" y="438.1904">&#160;</text><text fill="#000000" font-family="sans-serif" font-size="14" font-style="italic" lengthAdjust="spacing" textLength="178.7461" x="236.5625" y="438.1904">match asyncFunc.await {</text><text fill="#000000" font-family="sans-serif" font-size="14" lengthAdjust="spacing" textLength="4.4502" x="232.1123" y="454.4873">&#160;</text><text fill="#000000" font-family="sans-serif" font-size="14" font-style="italic" lengthAdjust="spacing" textLength="143.3428" x="249.9131" y="454.4873">Ok(value) =&gt; value,</text><text fill="#000000" font-family="sans-serif" font-size="14" lengthAdjust="spacing" textLength="4.4502" x="232.1123" y="470.7842">&#160;</text><text fill="#000000" font-family="sans-serif" font-size="14" font-style="italic" lengthAdjust="spacing" textLength="258.2686" x="249.9131" y="470.7842">Err(error) =&gt; return Err(error.into()),</text><text fill="#000000" font-family="sans-serif" font-size="14" lengthAdjust="spacing" textLength="4.4502" x="232.1123" y="487.0811">&#160;</text><text fill="#000000" font-family="sans-serif" font-size="14" font-style="italic" lengthAdjust="spacing" textLength="8.9072" x="236.5625" y="487.0811">}</text><text fill="#000000" font-family="sans-serif" font-size="14" lengthAdjust="spacing" textLength="4.4502" x="232.1123" y="503.3779">&#160;</text><path d="M172.1123,479.4922 L182.1123,479.4922 C197.1123,479.4922 197.1123,441.4922 212.1123,441.4922 L222.1123,441.4922 " fill="none" style="stroke:#181818;stroke-width:1.0;"/><rect fill="#F1F1F1" height="36.2969" rx="12.5" ry="12.5" style="stroke:#181818;stroke-width:1.5;" width="266.8525" x="222.1123" y="536.6797"/><text fill="#000000" font-family="sans-serif" font-size="14" font-weight="bold" lengthAdjust="spacing" textLength="26.0381" x="232.1123" y="559.6748">Arc</text><text fill="#000000" font-family="sans-serif" font-size="14" lengthAdjust="spacing" textLength="5.0518" x="262.6006" y="559.6748">-</text><text fill="#000000" font-family="sans-serif" font-size="14" font-style="italic" lengthAdjust="spacing" textLength="206.8623" x="272.1025" y="559.6748">Atomically reference counted</text><path d="M172.1123,479.4922 L182.1123,479.4922 C197.1123,479.4922 197.1123,554.8281 212.1123,554.8281 L222.1123,554.8281 " fill="none" style="stroke:#181818;stroke-width:1.0;"/><rect fill="#F1F1F1" height="36.2969" rx="12.5" ry="12.5" style="stroke:#181818;stroke-width:1.5;" width="76.6904" x="222.1123" y="592.9766"/><text fill="#000000" font-family="sans-serif" font-size="14" lengthAdjust="spacing" textLength="43.3398" x="232.1123" y="615.9717">Mutex</text><path d="M172.1123,479.4922 L182.1123,479.4922 C197.1123,479.4922 197.1123,611.125 212.1123,611.125 L222.1123,611.125 " fill="none" style="stroke:#181818;stroke-width:1.0;"/><path d="M61.3838,548.0664 L71.3838,548.0664 C86.3838,548.0664 86.3838,479.4922 101.3838,479.4922 L111.3838,479.4922 " fill="none" style="stroke:#181818;stroke-width:1.0;"/><rect fill="#F1F1F1" height="36.2969" rx="12.5" ry="12.5" style="stroke:#181818;stroke-width:1.5;" width="66.7236" x="111.3838" y="649.2734"/><text fill="#000000" font-family="sans-serif" font-size="14" lengthAdjust="spacing" textLength="46.7236" x="121.3838" y="672.2686">Option</text><text fill="#000000" font-family="sans-serif" font-size="14" lengthAdjust="spacing" textLength="46.1631" x="231.1074" y="663.1201">.take()</text><path d="M178.1074,667.4219 L188.1074,667.4219 C203.1074,667.4219 203.1074,658.2734 218.1074,658.2734 L228.1074,658.2734 " fill="none" style="stroke:#181818;stroke-width:1.0;"/><text fill="#000000" font-family="sans-serif" font-size="14" lengthAdjust="spacing" textLength="62.2686" x="231.1074" y="681.417">.ok_or(..)</text><path d="M178.1074,667.4219 L188.1074,667.4219 C203.1074,667.4219 203.1074,676.5703 218.1074,676.5703 L228.1074,676.5703 " fill="none" style="stroke:#181818;stroke-width:1.0;"/><path d="M61.3838,548.0664 L71.3838,548.0664 C86.3838,548.0664 86.3838,667.4219 101.3838,667.4219 L111.3838,667.4219 " fill="none" style="stroke:#181818;stroke-width:1.0;"/><rect fill="#F1F1F1" height="36.2969" rx="12.5" ry="12.5" style="stroke:#181818;stroke-width:1.5;" width="95.708" x="111.3838" y="705.5703"/><text fill="#000000" font-family="sans-serif" font-size="14" lengthAdjust="spacing" textLength="75.708" x="121.3838" y="728.5654">Containers</text><text fill="#000000" font-family="sans-serif" font-size="14" lengthAdjust="spacing" textLength="25.8877" x="260.0918" y="728.5654">Vec</text><path d="M207.0918,723.7188 L217.0918,723.7188 C232.0918,723.7188 232.0918,723.7188 247.0918,723.7188 L257.0918,723.7188 " fill="none" style="stroke:#181818;stroke-width:1.0;"/><path d="M61.3838,548.0664 L71.3838,548.0664 C86.3838,548.0664 86.3838,723.7188 101.3838,723.7188 L111.3838,723.7188 " fill="none" style="stroke:#181818;stroke-width:1.0;"/><rect fill="#F1F1F1" height="36.2969" rx="12.5" ry="12.5" style="stroke:#181818;stroke-width:1.5;" width="117.7402" x="111.3838" y="778.7578"/><text fill="#000000" font-family="sans-serif" font-size="14" lengthAdjust="spacing" textLength="97.7402" x="121.3838" y="801.7529">dependencies</text><text fill="#000000" font-family="sans-serif" font-size="14" lengthAdjust="spacing" textLength="34.6172" x="282.124" y="746.8623">tokio</text><path d="M229.124,796.9063 L239.124,796.9063 C254.124,796.9063 254.124,742.0156 269.124,742.0156 L279.124,742.0156 " fill="none" style="stroke:#181818;stroke-width:1.0;"/><text fill="#000000" font-family="sans-serif" font-size="14" lengthAdjust="spacing" textLength="222.3389" x="282.124" y="765.1592">serde: SErialize + DEserialize &#8594;</text><text fill="#000000" font-family="sans-serif" font-size="14" font-style="italic" lengthAdjust="spacing" textLength="39.1631" x="508.9131" y="765.1592">serde</text><path d="M229.124,796.9063 L239.124,796.9063 C254.124,796.9063 254.124,760.3125 269.124,760.3125 L279.124,760.3125 " fill="none" style="stroke:#181818;stroke-width:1.0;"/><text fill="#000000" font-family="sans-serif" font-size="14" lengthAdjust="spacing" textLength="72.8369" x="282.124" y="783.4561">serde-json</text><path d="M229.124,796.9063 L239.124,796.9063 C254.124,796.9063 254.124,778.6094 269.124,778.6094 L279.124,778.6094 " fill="none" style="stroke:#181818;stroke-width:1.0;"/><text fill="#000000" font-family="sans-serif" font-size="14" lengthAdjust="spacing" textLength="39.375" x="282.124" y="801.7529">axum</text><path d="M229.124,796.9063 L239.124,796.9063 C254.124,796.9063 254.124,796.9063 269.124,796.9063 L279.124,796.9063 " fill="none" style="stroke:#181818;stroke-width:1.0;"/><text fill="#000000" font-family="sans-serif" font-size="14" lengthAdjust="spacing" textLength="73.6641" x="282.124" y="820.0498">tower-http</text><path d="M229.124,796.9063 L239.124,796.9063 C254.124,796.9063 254.124,815.2031 269.124,815.2031 L279.124,815.2031 " fill="none" style="stroke:#181818;stroke-width:1.0;"/><text fill="#000000" font-family="sans-serif" font-size="14" lengthAdjust="spacing" textLength="97.6582" x="282.124" y="838.3467">tower-cookies</text><path d="M229.124,796.9063 L239.124,796.9063 C254.124,796.9063 254.124,833.5 269.124,833.5 L279.124,833.5 " fill="none" style="stroke:#181818;stroke-width:1.0;"/><text fill="#000000" font-family="sans-serif" font-size="14" lengthAdjust="spacing" textLength="73.3086" x="282.124" y="856.6436">lazy-regex</text><path d="M229.124,796.9063 L239.124,796.9063 C254.124,796.9063 254.124,851.7969 269.124,851.7969 L279.124,851.7969 " fill="none" style="stroke:#181818;stroke-width:1.0;"/><path d="M61.3838,548.0664 L71.3838,548.0664 C86.3838,548.0664 86.3838,796.9063 101.3838,796.9063 L111.3838,796.9063 " fill="none" style="stroke:#181818;stroke-width:1.0;"/><rect fill="#F1F1F1" height="36.2969" rx="12.5" ry="12.5" style="stroke:#181818;stroke-width:1.5;" width="148.5771" x="111.3838" y="870.9453"/><text fill="#000000" font-family="sans-serif" font-size="14" lengthAdjust="spacing" textLength="128.5771" x="121.3838" y="893.9404">dev-dependencies</text><text fill="#000000" font-family="sans-serif" font-size="14" lengthAdjust="spacing" textLength="54.626" x="312.9609" y="884.792">anyhow</text><path d="M259.9609,889.0938 L269.9609,889.0938 C284.9609,889.0938 284.9609,879.9453 299.9609,879.9453 L309.9609,879.9453 " fill="none" style="stroke:#181818;stroke-width:1.0;"/><text fill="#000000" font-family="sans-serif" font-size="14" lengthAdjust="spacing" textLength="68.373" x="312.9609" y="903.0889">httpc-test</text><path d="M259.9609,889.0938 L269.9609,889.0938 C284.9609,889.0938 284.9609,898.2422 299.9609,898.2422 L309.9609,898.2422 " fill="none" style="stroke:#181818;stroke-width:1.0;"/><path d="M61.3838,548.0664 L71.3838,548.0664 C86.3838,548.0664 86.3838,889.0938 101.3838,889.0938 L111.3838,889.0938 " fill="none" style="stroke:#181818;stroke-width:1.0;"/><rect fill="#F1F1F1" height="36.2969" rx="12.5" ry="12.5" style="stroke:#181818;stroke-width:1.5;" width="40.3711" x="111.3838" y="983.5391"/><text fill="#000000" font-family="sans-serif" font-size="14" lengthAdjust="spacing" textLength="20.3711" x="121.3838" y="1006.5342">DX</text><rect fill="#F1F1F1" height="36.2969" rx="12.5" ry="12.5" style="stroke:#181818;stroke-width:1.5;" width="344.1123" x="201.7549" y="927.2422"/><text fill="#000000" font-family="sans-serif" font-size="14" lengthAdjust="spacing" textLength="50.4424" x="211.7549" y="950.2373">Special</text><text fill="#000000" font-family="sans-serif" font-size="14" font-weight="bold" lengthAdjust="spacing" textLength="55.1318" x="266.6475" y="950.2373">todo!()</text><text fill="#000000" font-family="sans-serif" font-size="14" lengthAdjust="spacing" textLength="209.6377" x="326.2295" y="950.2373">placeholder impl for functions</text><path d="M151.7549,1001.6875 L161.7549,1001.6875 C176.7549,1001.6875 176.7549,945.3906 191.7549,945.3906 L201.7549,945.3906 " fill="none" style="stroke:#181818;stroke-width:1.0;"/><rect fill="#F1F1F1" height="36.2969" rx="12.5" ry="12.5" style="stroke:#181818;stroke-width:1.5;" width="252.3057" x="201.7549" y="983.5391"/><text fill="#000000" font-family="sans-serif" font-size="14" lengthAdjust="spacing" textLength="232.3057" x="211.7549" y="1006.5342">Destructuring in function params</text><path d="M151.7549,1001.6875 L161.7549,1001.6875 C176.7549,1001.6875 176.7549,1001.6875 191.7549,1001.6875 L201.7549,1001.6875 " fill="none" style="stroke:#181818;stroke-width:1.0;"/><rect fill="#F1F1F1" height="36.2969" rx="12.5" ry="12.5" style="stroke:#181818;stroke-width:1.5;" width="214.79" x="201.7549" y="1039.8359"/><text fill="#000000" font-family="sans-serif" font-size="14" lengthAdjust="spacing" textLength="194.79" x="211.7549" y="1062.8311">Blocks having return values</text><path d="M151.7549,1001.6875 L161.7549,1001.6875 C176.7549,1001.6875 176.7549,1057.9844 191.7549,1057.9844 L201.7549,1057.9844 " fill="none" style="stroke:#181818;stroke-width:1.0;"/><path d="M61.3838,548.0664 L71.3838,548.0664 C86.3838,548.0664 86.3838,1001.6875 101.3838,1001.6875 L111.3838,1001.6875 " fill="none" style="stroke:#181818;stroke-width:1.0;"/><rect fill="#FFA500" height="36.2969" rx="12.5" ry="12.5" style="stroke:#181818;stroke-width:1.5;" width="117.8018" x="10" y="1164.3945"/><text fill="#000000" font-family="sans-serif" font-size="14" font-weight="bold" lengthAdjust="spacing" textLength="97.8018" x="20" y="1187.3896">#[derive(..)]</text><text fill="#000000" font-family="sans-serif" font-size="14" lengthAdjust="spacing" textLength="50.832" x="180.8018" y="1100.1279">of form</text><text fill="#000000" font-family="sans-serif" font-size="14" font-weight="bold" lengthAdjust="spacing" textLength="214.4297" x="236.084" y="1100.1279">#[derive(Trait1, .., TraitN)]</text><path d="M127.8018,1182.543 L137.8018,1182.543 C152.8018,1182.543 152.8018,1095.2813 167.8018,1095.2813 L177.8018,1095.2813 " fill="none" style="stroke:#181818;stroke-width:1.0;"/><text fill="#000000" font-family="sans-serif" font-size="14" lengthAdjust="spacing" textLength="142.0303" x="180.8018" y="1118.4248">Attribute on a struct</text><path d="M127.8018,1182.543 L137.8018,1182.543 C152.8018,1182.543 152.8018,1113.5781 167.8018,1113.5781 L177.8018,1113.5781 " fill="none" style="stroke:#181818;stroke-width:1.0;"/><text fill="#000000" font-family="sans-serif" font-size="14" lengthAdjust="spacing" textLength="420.1025" x="180.8018" y="1136.7217">Asks for auto generating a suitable implementation of traits</text><path d="M127.8018,1182.543 L137.8018,1182.543 C152.8018,1182.543 152.8018,1131.875 167.8018,1131.875 L177.8018,1131.875 " fill="none" style="stroke:#181818;stroke-width:1.0;"/><rect fill="#FFFF00" height="36.2969" rx="12.5" ry="12.5" style="stroke:#181818;stroke-width:1.5;" width="158.291" x="177.8018" y="1151.0234"/><text fill="#000000" font-family="sans-serif" font-size="14" font-weight="bold" lengthAdjust="spacing" textLength="138.291" x="187.8018" y="1174.0186">#[derive(Debug)]</text><text fill="#000000" font-family="sans-serif" font-size="14" lengthAdjust="spacing" textLength="34.6445" x="389.0928" y="1164.8701">Adds</text><text fill="#000000" font-family="sans-serif" font-size="14" font-weight="bold" lengthAdjust="spacing" textLength="344.292" x="428.1875" y="1164.8701">fn fmt(&amp;self, std::fmt::Formatter) -&gt; Result</text><path d="M336.0928,1169.1719 L346.0928,1169.1719 C361.0928,1169.1719 361.0928,1160.0234 376.0928,1160.0234 L386.0928,1160.0234 " fill="none" style="stroke:#181818;stroke-width:1.0;"/><text fill="#000000" font-family="sans-serif" font-size="14" lengthAdjust="spacing" textLength="72.7139" x="389.0928" y="1183.167">Usable via</text><text fill="#000000" font-family="sans-serif" font-size="14" font-weight="bold" lengthAdjust="spacing" textLength="33.6533" x="466.2568" y="1183.167">{:?}</text><text fill="#000000" font-family="sans-serif" font-size="14" lengthAdjust="spacing" textLength="91.5947" x="504.3604" y="1183.167">format string</text><path d="M336.0928,1169.1719 L346.0928,1169.1719 C361.0928,1169.1719 361.0928,1178.3203 376.0928,1178.3203 L386.0928,1178.3203 " fill="none" style="stroke:#181818;stroke-width:1.0;"/><path d="M127.8018,1182.543 L137.8018,1182.543 C152.8018,1182.543 152.8018,1169.1719 167.8018,1169.1719 L177.8018,1169.1719 " fill="none" style="stroke:#181818;stroke-width:1.0;"/><rect fill="#FFFF00" height="36.2969" rx="12.5" ry="12.5" style="stroke:#181818;stroke-width:1.5;" width="194.501" x="177.8018" y="1215.0625"/><text fill="#000000" font-family="sans-serif" font-size="14" font-weight="bold" lengthAdjust="spacing" textLength="174.501" x="187.8018" y="1238.0576">#[derive(Deserialize)]</text><text fill="#000000" font-family="sans-serif" font-size="14" lengthAdjust="spacing" textLength="11.7305" x="425.3027" y="1201.4639">+</text><text fill="#000000" font-family="sans-serif" font-size="14" font-style="italic" lengthAdjust="spacing" textLength="309.0254" x="441.4834" y="1201.4639">serde = {version="1", features=["derive]"}</text><path d="M372.3027,1233.2109 L382.3027,1233.2109 C397.3027,1233.2109 397.3027,1196.6172 412.3027,1196.6172 L422.3027,1196.6172 " fill="none" style="stroke:#181818;stroke-width:1.0;"/><text fill="#000000" font-family="sans-serif" font-size="14" lengthAdjust="spacing" textLength="11.7305" x="425.3027" y="1219.7607">+</text><text fill="#000000" font-family="sans-serif" font-size="14" font-style="italic" lengthAdjust="spacing" textLength="108.3018" x="441.4834" y="1219.7607">serde_json="1"</text><path d="M372.3027,1233.2109 L382.3027,1233.2109 C397.3027,1233.2109 397.3027,1214.9141 412.3027,1214.9141 L422.3027,1214.9141 " fill="none" style="stroke:#181818;stroke-width:1.0;"/><text fill="#000000" font-family="sans-serif" font-size="14" font-style="italic" lengthAdjust="spacing" textLength="261.1533" x="425.3027" y="1238.0576">serde_json::to_string(&amp;obj).unwrap();</text><path d="M372.3027,1233.2109 L382.3027,1233.2109 C397.3027,1233.2109 397.3027,1233.2109 412.3027,1233.2109 L422.3027,1233.2109 " fill="none" style="stroke:#181818;stroke-width:1.0;"/><text fill="#000000" font-family="sans-serif" font-size="14" font-style="italic" lengthAdjust="spacing" textLength="325.4043" x="425.3027" y="1256.3545">serde_json::from_string(&amp;serialized).unwrap();</text><path d="M372.3027,1233.2109 L382.3027,1233.2109 C397.3027,1233.2109 397.3027,1251.5078 412.3027,1251.5078 L422.3027,1251.5078 " fill="none" style="stroke:#181818;stroke-width:1.0;"/><text fill="#000000" font-family="sans-serif" font-size="14" lengthAdjust="spacing" textLength="222.5098" x="425.3027" y="1274.6514">See https://serde.rs/derive.html</text><path d="M372.3027,1233.2109 L382.3027,1233.2109 C397.3027,1233.2109 397.3027,1269.8047 412.3027,1269.8047 L422.3027,1269.8047 " fill="none" style="stroke:#181818;stroke-width:1.0;"/><path d="M127.8018,1182.543 L137.8018,1182.543 C152.8018,1182.543 152.8018,1233.2109 167.8018,1233.2109 L177.8018,1233.2109 " fill="none" style="stroke:#181818;stroke-width:1.0;"/><rect fill="#FFA500" height="36.2969" rx="12.5" ry="12.5" style="stroke:#181818;stroke-width:1.5;" width="113.5703" x="10" y="1297.1016"/><text fill="#000000" font-family="sans-serif" font-size="14" lengthAdjust="spacing" textLength="93.5703" x="20" y="1320.0967">Rust Specials</text><rect fill="#F1F1F1" height="52.5938" rx="12.5" ry="12.5" style="stroke:#181818;stroke-width:1.5;" width="372.9941" x="173.5703" y="1288.9531"/><text fill="#000000" font-family="sans-serif" font-size="14" font-weight="bold" lengthAdjust="spacing" textLength="170.9121" x="183.5703" y="1311.9482">Option&lt;T&gt;.as_deref()</text><text fill="#000000" font-family="sans-serif" font-size="14" lengthAdjust="spacing" textLength="79.0781" x="358.9326" y="1311.9482">converts to</text><text fill="#000000" font-family="sans-serif" font-size="14" font-style="italic" lengthAdjust="spacing" textLength="94.1035" x="442.4609" y="1311.9482">Option&lt;&amp;T &gt;</text><text fill="#000000" font-family="sans-serif" font-size="14" lengthAdjust="spacing" textLength="278.0107" x="183.5703" y="1328.2451">avoid string creation he says. T=String.</text><path d="M123.5703,1315.25 L133.5703,1315.25 C148.5703,1315.25 148.5703,1315.25 163.5703,1315.25 L173.5703,1315.25 " fill="none" style="stroke:#181818;stroke-width:1.0;"/><rect fill="#FFB6C1" height="36.2969" rx="12.5" ry="12.5" style="stroke:#181818;stroke-width:1.5;" width="85.4473" x="10" y="1414.1406"/><text fill="#000000" font-family="sans-serif" font-size="14" lengthAdjust="spacing" textLength="65.4473" x="20" y="1437.1357">Concerns</text><rect fill="#F1F1F1" height="85.1875" rx="12.5" ry="12.5" style="stroke:#181818;stroke-width:1.5;" width="279.2939" x="145.4473" y="1361.5469"/><text fill="#000000" font-family="sans-serif" font-size="14" lengthAdjust="spacing" textLength="152.9541" x="159.8975" y="1384.542">Auto fill impl for traits</text><text fill="#000000" font-family="sans-serif" font-size="14" lengthAdjust="spacing" textLength="164.5684" x="159.8975" y="1400.8389">misc auto complete etc</text><text fill="#000000" font-family="sans-serif" font-size="14" lengthAdjust="spacing" textLength="250.3936" x="159.8975" y="1417.1357">Errors and guidance are sometimes</text><text fill="#000000" font-family="sans-serif" font-size="14" lengthAdjust="spacing" textLength="124.8516" x="159.8975" y="1433.4326">incomprehensible</text><path d="M95.4473,1432.2891 L105.4473,1432.2891 C120.4473,1432.2891 120.4473,1404.1406 135.4473,1404.1406 L145.4473,1404.1406 " fill="none" style="stroke:#181818;stroke-width:1.0;"/><rect fill="#F1F1F1" height="36.2969" rx="12.5" ry="12.5" style="stroke:#181818;stroke-width:1.5;" width="309.7617" x="145.4473" y="1466.7344"/><text fill="#000000" font-family="sans-serif" font-size="14" lengthAdjust="spacing" textLength="289.7617" x="155.4473" y="1489.7295">JetBrains maybe way better than VSCode</text><path d="M95.4473,1432.2891 L105.4473,1432.2891 C120.4473,1432.2891 120.4473,1484.8828 135.4473,1484.8828 L145.4473,1484.8828 " fill="none" style="stroke:#181818;stroke-width:1.0;"/><!--SRC=[xLRhRjH65FxlfpW42RncrqiGAiWX2I6NgYa1n8QeKXIjPktZtI7sp38ptcI9yhSFq4Via_IS6NiJL0JqLzKgI64zC-VopRbySrvQ9uohfIfgCOyIUDzO5qL90WUDoftK2cYHP23Cr48k54mGagIG1dC71Lfdcjmr1WjIAOsk8UpOUn4CG9RWcdc5e4ID5XgB1KW5sXHeslCWtcybQl8EjN3vh3s0Kc9LXDC88AY2GZAaj6CmSuCMpO8sjZSOQZA6ag133CViUkJDl27zMFGdlTwN8WTi_KRaYaIkU_xwnyivUVIoIHBtQ4TQM6XPy1wWQchRcf8EQqlnGGfFLH6E93aHHWhbR9AqCejseujW6wJsT2OM24xpmIwXg7O51UeUDAf2Qy7ECPTaUGb2qPs5mwBLIvBxftIWBsAbrJXdLVhVujWn-DuPkUUh_F8sf319hgwJf0zkXb1gGs4EjYd4fi_NqwNVvunVWPvyXAoJ8ptErt0Orfl38LdRfZ-eKIWBUpXffdrOI45xf_SfHtA1iTzb61roAYSsyqPtTeCskx8ptL2YPKqvgr4vZv8pRbsHPMNjicnFsdabbk2Ca6x3NqtOfSgxBFa5b8hswSi9AjySR3CLXjsHGAaWJM6mHRND9VjYA-J7wrwGJLBa7mAa237Trbkak-evce2-3II9k-rG4q6GzLQ2cXroNgWO9fGsZXK9trW9-2vlWHiE3H8cnQxH66t867vgv8Bg8eheE3I51yITcNgFS3KSyY65wUrvl11LWptOt0B_rL-TxHiJUwF-i7MqsaobSZhkzLhvQ_hnZKIeTqnElvpt7QThcVigD5YYGPLJlUj6KJMI0eiVDGuloPjFpDjv5wunf4wSOznh5_fyh4sSfg7DTZK5GYeqRQ-TOExt2voZAiYBxBhGwNEfmoVrUu4PZFQfgIhv6U4HxEtJPhlwy_S_2B4N2j1QZS57sq4IbqtTcRr0CvWvDx-zpZLvwpnNulDoO72AbosqnU3ly8HQplG5X0MRomSEMohT-yq7Q1GQcUBgTA7lULAXWivnfYjcDQvzNmnbIxtUDFLMHx9IJPa-ksEO2oC23S6hIkVdbfc4XTeK-pAmKVHmyCr_qKCW9zonCF5clgj0BQwDK5CyynpKjZlbzCntr7Z59BTEZxbhr_lKWNtmtszMqZlE6JcXyl6Drv9ZEB5qAGw9Q8WVfwXy1z4DIQgHJapeRLbHXkyjTkq9mdBeJ-ylaHln2vmhMWh9sYaA6yY1M2P-OB4g-xTOvy0pbKDg7cAEzsYRodMg7wn746ZlAjk-vaUmPLR7wVe6XbMztY1vr9KjRCBLWdg2xhEvjhxMXn85CvRTF5qB1ixMhhlQNccDkRvPlZkvlPzbJey3gFW14MulRTI54VEuj_5rSNxCLmehiCLNz4Q8lk9jrbf8ZHq6cEdCrTNt2f3hZtk3MeCc1FyC6Pv27lvm4VBGqhKNzqEM9860NXnlfSAE2GoMljzohIYmHF5KJiDXA_JW6BReCeAVzpPna1iCzKJFa1LBcyBnviWVfHlH3q2hv7JcvbATdp77vMXyDsUmmuLSoggwQVUsNA6MDW-5dckkQUe7T7d4JAqDFpG5J1jP2APU7ZUihj597fiYeWNMCJX3PINL967ar_aGtIkoJcziBPOqNbpGypb1hcPwN-dbEXdjwWAZw2MnMJS3HY_lHiAxaV1k9BmR2Uz6ml_jI7WtmTrDSFzaWlitXwt_zZJrhg9N_iFHQsZB0TRJ9u-VF4sVnICgiX7EuV4pM5_Frfzdwy_Wm_4ky74lYdz-zvf0DORm5TA6_YBzNdGe5eAoe1XjHhIAwd3lrsu3zjL26gsudQB3awCRWP-U3bv9zaYJaO6JesWFIq6jG1gvBYZM6Na_63oFNbEU6p4bswYYNIPqiwIpqLy0]--></g></svg>