<svg xmlns="http://www.w3.org/2000/svg" xmlns:xlink="http://www.w3.org/1999/xlink" contentStyleType="text/css" height="460px" preserveAspectRatio="none" style="width:564px;height:460px;background:#FFFFFF;" version="1.1" viewBox="0 0 564 460" width="564px" zoomAndPan="magnify"><defs/><g><!--cluster app--><g id="cluster_app"><path d="M8.5,6 L38.9902,6 A3.75,3.75 0 0 1 41.4902,8.5 L48.4902,28.2969 L483.5,28.2969 A2.5,2.5 0 0 1 486,30.7969 L486,246.46 A2.5,2.5 0 0 1 483.5,248.96 L8.5,248.96 A2.5,2.5 0 0 1 6,246.46 L6,8.5 A2.5,2.5 0 0 1 8.5,6 " fill="none" style="stroke:#000000;stroke-width:1.5;"/><line style="stroke:#000000;stroke-width:1.5;" x1="6" x2="48.4902" y1="28.2969" y2="28.2969"/><text fill="#000000" font-family="sans-serif" font-size="14" font-weight="bold" lengthAdjust="spacing" textLength="29.4902" x="10" y="20.9951">app</text></g><!--entity web-service--><g id="elem_web-service"><rect fill="#F1F1F1" height="46.2969" rx="2.5" ry="2.5" style="stroke:#181818;stroke-width:0.5;" width="124.1504" x="345.92" y="186.67"/><rect fill="#F1F1F1" height="10" style="stroke:#181818;stroke-width:0.5;" width="15" x="450.0704" y="191.67"/><rect fill="#F1F1F1" height="2" style="stroke:#181818;stroke-width:0.5;" width="4" x="448.0704" y="193.67"/><rect fill="#F1F1F1" height="2" style="stroke:#181818;stroke-width:0.5;" width="4" x="448.0704" y="197.67"/><text fill="#000000" font-family="sans-serif" font-size="14" lengthAdjust="spacing" textLength="84.1504" x="360.92" y="219.6651">web-service</text></g><g id="elem_GMN4"><path d="M244.46,41 L244.46,126.6641 A0,0 0 0 0 244.46,126.6641 L370.41,126.6641 L398.82,186.51 L378.41,126.6641 L469.5498,126.6641 A0,0 0 0 0 469.5498,126.6641 L469.5498,51 L459.5498,41 L244.46,41 A0,0 0 0 0 244.46,41 " fill="#FEFFDD" style="stroke:#181818;stroke-width:0.5;"/><path d="M459.5498,41 L459.5498,51 L469.5498,51 L459.5498,41 " fill="#FEFFDD" style="stroke:#181818;stroke-width:0.5;"/><text fill="#000000" font-family="sans-serif" font-size="13" lengthAdjust="spacing" textLength="160.1577" x="250.46" y="58.0669">PG_DEV_POSTGRES_URL</text><text fill="#000000" font-family="sans-serif" font-size="13" lengthAdjust="spacing" textLength="114.8926" x="250.46" y="73.1997">PG_DEV_APP_URL</text><text fill="#000000" font-family="sans-serif" font-size="13" lengthAdjust="spacing" textLength="204.0898" x="250.46" y="88.3325">SQL_RECREATE_DB_FILE_NAME</text><text fill="#000000" font-family="sans-serif" font-size="13" lengthAdjust="spacing" textLength="55.104" x="250.46" y="103.4653">SQL_DIR</text><text fill="#000000" font-family="sans-serif" font-size="13" lengthAdjust="spacing" textLength="76.8765" x="250.46" y="118.5981">DEMO_PWD</text></g><!--entity config.toml--><g id="elem_config.toml"><rect fill="#F1F1F1" height="46.2969" rx="2.5" ry="2.5" style="stroke:#181818;stroke-width:0.5;" width="118.873" x="191.56" y="186.67"/><rect fill="#F1F1F1" height="10" style="stroke:#181818;stroke-width:0.5;" width="15" x="290.433" y="191.67"/><rect fill="#F1F1F1" height="2" style="stroke:#181818;stroke-width:0.5;" width="4" x="288.433" y="193.67"/><rect fill="#F1F1F1" height="2" style="stroke:#181818;stroke-width:0.5;" width="4" x="288.433" y="197.67"/><text fill="#000000" font-family="sans-serif" font-size="14" lengthAdjust="spacing" textLength="78.873" x="206.56" y="219.6651">config.toml</text></g><g id="elem_GMN8"><path d="M21.88,189.68 L21.88,229.9456 A0,0 0 0 0 21.88,229.9456 L156.1158,229.9456 A0,0 0 0 0 156.1158,229.9456 L156.1158,213.82 L191.13,209.82 L156.1158,205.82 L156.1158,199.68 L146.1158,189.68 L21.88,189.68 A0,0 0 0 0 21.88,189.68 " fill="#FEFFDD" style="stroke:#181818;stroke-width:0.5;"/><path d="M146.1158,189.68 L146.1158,199.68 L156.1158,199.68 L146.1158,189.68 " fill="#FEFFDD" style="stroke:#181818;stroke-width:0.5;"/><text fill="#000000" font-family="sans-serif" font-size="13" lengthAdjust="spacing" textLength="113.2358" x="27.88" y="206.7469">SERVICE_DB_URL</text><text fill="#000000" font-family="sans-serif" font-size="13" lengthAdjust="spacing" textLength="68.7896" x="27.88" y="221.8797">RUST_LOG</text></g><!--entity postgres--><g id="elem_postgres"><path d="M367.61,302.96 C367.61,292.96 408.0026,292.96 408.0026,292.96 C408.0026,292.96 448.3952,292.96 448.3952,302.96 L448.3952,328.2569 C448.3952,338.2569 408.0026,338.2569 408.0026,338.2569 C408.0026,338.2569 367.61,338.2569 367.61,328.2569 L367.61,302.96 " fill="#F1F1F1" style="stroke:#181818;stroke-width:0.5;"/><path d="M367.61,302.96 C367.61,312.96 408.0026,312.96 408.0026,312.96 C408.0026,312.96 448.3952,312.96 448.3952,302.96 " fill="none" style="stroke:#181818;stroke-width:0.5;"/><text fill="#000000" font-family="sans-serif" font-size="14" lengthAdjust="spacing" textLength="60.7852" x="377.61" y="329.9551">postgres</text></g><g id="elem_GMN13"><path d="M258.13,398.26 L258.13,453.6584 A0,0 0 0 0 258.13,453.6584 L557.8746,453.6584 A0,0 0 0 0 557.8746,453.6584 L557.8746,408.26 L547.8746,398.26 L412,398.26 L408,338.54 L404,398.26 L258.13,398.26 A0,0 0 0 0 258.13,398.26 " fill="#FEFFDD" style="stroke:#181818;stroke-width:0.5;"/><path d="M547.8746,398.26 L547.8746,408.26 L557.8746,408.26 L547.8746,398.26 " fill="#FEFFDD" style="stroke:#181818;stroke-width:0.5;"/><text fill="#000000" font-family="sans-serif" font-size="13" lengthAdjust="spacing" textLength="70.1797" x="264.13" y="415.3269">docker run</text><text fill="#000000" font-family="sans-serif" font-size="13" lengthAdjust="spacing" text-decoration="line-through" textLength="18.0083" x="338.442" y="415.3269">rm</text><text fill="#000000" font-family="sans-serif" font-size="13" lengthAdjust="spacing" textLength="149.2588" x="360.5826" y="415.3269">name pg -p 5432:5432</text><text fill="#000000" font-family="sans-serif" font-size="13" lengthAdjust="spacing" textLength="237.4214" x="276.527" y="430.4597">-e POSTGRES_PASSWORD=welcome</text><text fill="#000000" font-family="sans-serif" font-size="13" lengthAdjust="spacing" textLength="77.3652" x="276.527" y="445.5925">postgres:15</text></g><!--link config.toml to web-service--><g id="link_config.toml_web-service"><path d="M310.79,209.82 C322.44,209.82 328.08,209.82 339.73,209.82 " fill="none" id="config.toml-to-web-service" style="stroke:#181818;stroke-width:1.0;"/><polygon fill="#181818" points="345.73,209.82,336.73,205.82,340.73,209.82,336.73,213.82,345.73,209.82" style="stroke:#181818;stroke-width:1.0;"/></g><!--link web-service to postgres--><g id="link_web-service_postgres"><path d="M408,233.34 C408,250.87 408,269.06 408,286.49 " fill="none" id="web-service-to-postgres" style="stroke:#181818;stroke-width:1.0;"/><polygon fill="#181818" points="408,292.49,412,283.49,408,287.49,404,283.49,408,292.49" style="stroke:#181818;stroke-width:1.0;"/></g><!--SRC=[RP3DQeD04CVlFiMym1RwaKkW0Hkt8fXgLvCSIbbM7IL4tKMtpI7qtRlPe8bfvp0md__VZ1BvNbG8GYauEc3iuu0PwR7xtkNuQJEjr0XQAf3bFzMJnJxtw8R7KPBwZ2PypSBRcXl7atJo7d96buowAUNU2tyDGihVt1MTT7W16sEFhY8URpsRmBQmN3OuS-UoBNVLdPPDVSLTOwaj-9-orQ1i4omjm3KSMoSf3oD_AlNZE9CjG1Ot_t0AeKKcUWGbUrrrsCFH0ffHIvD9RKPFF4E3bIXaliSEkgyM2EaQurhHc2KL40MpfyU7-SaDU0HX_7Ji9iasOjxp0UjScfcp3Qs3oln-ventE1De8xQuqFm2]--></g></svg>